
<svg version="1.1" id="Слой_1" xmlns="http://www.w3.org/2000/svg" xmlns:xlink="http://www.w3.org/1999/xlink" x="0" y="0" viewBox="0 0 2180 1366" style="enable-background:new 0 0 2180 1366" xml:space="preserve">
  <style>
    .st1{fill:none}.st3,.st4{fill-rule:evenodd;clip-rule:evenodd;fill:#fff}.st4{fill:#6a1ba8}.st5{fill:#fff}.st10{fill:#969696}.st14{fill:#d9272e}.st15{fill:#1d1d1b}.st16{fill:#bce4fa}.st17{fill:#bca3ce}.st18{fill:#f29fc4}.st19{fill:#a2daf8}.st20{fill:#d3d800}.st21{fill:#ffed4b}.st22{fill:#f5b5d2}.st23{fill:none;stroke:#fff;stroke-width:4;stroke-miterlimit:10}.st24{fill:#12100b}.st25{fill:#fff;stroke:#fff;stroke-width:4;stroke-miterlimit:10}
  </style>
  <defs>
    <path id="SVGID_1_" d="M0 0h2180v1366H0z"/>
  </defs>
  <clipPath id="SVGID_00000144316048672742436660000012385822917264580738_">
    <use xlink:href="#SVGID_1_" style="overflow:visible"/>
  </clipPath>
  <g style="clip-path:url(#SVGID_00000144316048672742436660000012385822917264580738_)">
    <path class="st1" d="M0 0h2180v1366H0z"/>
    <defs>
      <path id="SVGID_00000116918798754296465250000017542751027432693889_" d="M498 781h303v296H498z"/>
    </defs>
    <clipPath id="SVGID_00000042731392286716161210000009600538902275533743_">
      <use xlink:href="#SVGID_00000116918798754296465250000017542751027432693889_" style="overflow:visible"/>
    </clipPath>
    <g style="opacity:.1;clip-path:url(#SVGID_00000042731392286716161210000009600538902275533743_)">
      <path class="st3" d="m685 1018-2 5-2 12-1 9 4 16 2 3v2l-7 4-13 3-7 1-8 1-12-1-13-4-8-3-1-1v-1l3-7c2-4 3-8 3-13l-1-11-4-12-1-1 1-1 3 2c2 2 6 3 9 4l8 1h12l8-1 15-2 11-4 1-1zm-32 39h2l5-3 2-5-1-6-2-1-3-1h-1l-1-1v-2l3-1 1 1h3v-1l1-3-5 1c-2-1-3-1-4 2v2c-1 3 0 5 3 6l2 1 1 2-1 4-3 3-2 2zm23-23-3 1c-5-1-4-1-6 3v1c-1 3 0 4 3 5 1 1 3 2 3 4 0 4-1 5-5 7l-1 1 2 1c2-1 4-2 6-5l1-7-1-2-2-1-3-2-1-1v-1l1-1h6v-3zm-48 22 3 1 4-1-2-2 1-19-1-1-6 4h3v15c0 2 0 3-2 3zm15 3 1-9 6-14v-3l-5 2-5-1-1 5 1 1 5-1a909 909 0 0 0-4 17c-1 3-1 3 2 3zm9-64c0-1 0-2-2-2h-10v-2c1-2 2-2 4-2h14v4c0 1 0 2 2 2h5l2 2a12 12 0 0 0 10 2l15-1h3l-2 3-2 4c0 2-1 3-3 2h-2l-10 3-14 2-7 1h-19l-20-4-4-1-1-1c0-3-2-5-3-7h17c4 0 7-3 10-4l2-1h15zm7 11h9l1-1-1-1-4 1-12-1-10 1h-13v1h30zm0-3h4l2-1-2-1-1 1h-30l2 1h25z"/>
      <path class="st3" d="m618 1030-5-1-4-4-5-6c0 3 2 5 3 7-1 1-3 0-4-1-5-3-9-7-12-12l-3-9-1-1-1 2v2c1 4 3 8 7 11a25 25 0 0 1 3 4h-2c-3-1-4-1-5 1h-2l-6-3c-4-2-4-4-2-7l-3-3-2-4c0-1 1-2 3-2h2c-1-2-2-5 0-7l5-2c3 0 8 2 8 6l2-2c1 1 3-1 3 1l2 4 1 7h1l3-1 3 1 2 3c1 2 1 4 3 5l3 3 3 5v3zm77-4 4-7-1-1-1 2-6 8-4 2-3 1v-3l2-3 4-5 4-7 2-2 2-1h2l2 1 1-2c0-3 0-5 2-8 1-2 2-2 4-1l2-1c0-2 2-3 4-4h2a5 5 0 0 1 6 2l1 2v3l-1 1h2c2-1 4 1 3 3-1 3-3 5-5 6 3 5 1 7-3 9l-5 1h-1c-1 0 0 0 0 0l-2-1-1-1-2 1h-1l-2 2-1-1 2-2c4-3 8-8 9-13v-4c-4 10-10 19-20 24l-1-1zm-154-67 1 3 4 10 3 3 1 1-1 2-4 10c-1 5-2 10 0 15l-1 2-6-1c-2 0-5 0-5-3h-1c-4-4-4-8-3-13 0-4 1-9 3-13l5-11c2-1 3-3 3-5h1zm218-3 4 6 6 15c2 5 2 11 2 17l-1 1-4 5-1 1h-3l-7 1 1-4v-10l-5-13-1-1 1-2c3-3 4-7 5-11l3-5zm-65 81 3-4 4-1 3 1c3 1 3 2 2 4l-1 1 4 1h3c1 0 2 2 1 4 0 2 0 2 2 3 2 0 3 1 3 3s-1 3-2 3l-1 3c1 3 0 5-4 5l-5-2-3-4v-5l1-1 4 1 1 1v-1l-6-2-8-2h-11l-2-1v-3l7-6c2-2 4-1 5 2zm-100 13 5-2 1 5-1 4-3 2-3 1h-3l-2-1v-5c-1-1-3-1-3-4v-1l1-2h1l2-1c1 0 2 0 1-1-2-5 1-6 5-6h3l-1-2v-1l-1-1 1-1 1-1 4-1 5 2 1 1 1 2 1-3h3l1 2 6 4c2 1 1 2 1 3-1 2-2 2-3 1l-12 1-9 3-3 2zm-30-15-2-1-2-2-1-2v-3l2-3 4-2 2 1 3-1 1-2 3-1c2 0 2 0 2 2l1 2 2 2h4c1 1-2 3-5 3h-5l-3 1h3l11 1 7 1-3 5-1 1-4 1a5 5 0 0 0-4 5c0 2 0 2-2 2l-9-1c-4-2-5-4-4-9zm9 3 9-5v-1h-1l-7 3-1 3zm138-8c7-2 15-1 22-2a6 6 0 0 0-6-1l-6-1-2-2h4c3 0 4-2 3-5l1-1 4 1 2 1c0 2 1 2 2 1l5 1 3 3v5l-2 2-2 1v1c1 4 0 6-4 7-3 2-7 3-10 3-2 0-2-1-2-2 0-4-3-6-6-6s-3 0-4-3l-2-3zm10 1h-1l1 1 3 2 5 2h1l-1-2-8-3zm-150-14c-5-4-9-8-12-13v1l7 12h-1a7 7 0 0 0-6 3l-2 4h-3l-2-2c-2-2 0-3 1-5l-3-2-1-3 1-3 3-1-2-4 1-4 3-3c3-1 6 0 7 3l1 1v-1c1-2 2-3 3-2l3 1v10l2 3 1 2-1 3zm168-17 1-1c2-3 3-4 6-4l3 2 2 4-1 4v1l2 2 1 2-1 3-2 2v1l1 2v1l-1 2-1 1-3 1-2-1-2-4-4-2h-3c4-4 7-8 9-13l-13 13-1-4 1-1 2-2 1-2-1-6 1-3 2-1c2 0 3 0 3 3zm-70-102h1c2 0 2 0 2 2l1 41-1 7 1 4-1 10c0 2 1 2 2 2h7v1l-1 1h-11v-68zm-52 67 2-1h8v-64c0-2 1-2 2-2l1 1v64c0 2 0 3-2 3l-10-1h-1zm33-6-1 2-1 4h-14c-2 0-3 0-2-2v-2h13a8 8 0 0 1-4-7c1 0 3 3 5 1l1-1h3l2 2 3-1h3l-1 2-2 3h-1v1h10l4 1v3l-6 1h-8l-1-1h-1l-1-5-1-1zm-137-9c-7-12-8-24-9-36l5 4 4 11 2 10-1 9-1 2zm282-40-1 8-1 8-4 13-2 5-1 1-1-1-1-4 2-14c0-4 2-8 4-11l4-5h1zm-279-46 2-8 4-11c3-5 4-9 4-13l1-2 1 1 2 6c1 5 0 10-3 14l-6 9-4 5-1-1zm7 37-1-3-1-5v-8c0-4 1-9 4-13l5-5c1 12-1 24-7 34zm249-75 1 5c1 5 2 9 5 13l5 17h-1c-1 0 0 0 0 0l-2-2-7-8c-3-4-4-9-4-14 0-3 0-6 2-9l1-2zm4 72c-5-10-8-22-7-34h1c4 3 6 6 7 10l1 15-1 8-1 1zm-61 39v45l-2 1-2-1v-42c0-3 1-3 4-3zm-205 24h1c4 1 7 2 10 5 2 2 3 4 3 7l1 11v2l-5-6-5-10-5-9zm280-4-1 1-3 7-8 13-3 4h-1v-4l1-8c0-3 2-6 4-8l8-5h3zM554 804l1 4c1 6-3 10-7 13l-10 6-1 1v-3l6-8 10-13h1zm192-3 8 10 5 6 4 8c-6-2-11-5-15-9l-3-5v-6l1-4zm43 64v4l2 20v14h-1l-2-3c-3-6-4-12-3-18l1-11 2-4 1-2zm-202 73v46h-2l-1-1v-43c0-2 0-2 2-2h1zm-78-31v-11l1-16v-11a40 40 0 0 1-1 38zm15 27-1-1c-2-4-3-8-3-13-1-2 0-5 1-7l4-6 2-1-2 14v14h-1zm56-124-4 4-16 9-2 2v-2l4-8c2-3 5-5 8-6h5l5 1zm162 12h-1l-14-7-5-3-3-3 3-1c3 0 6-1 10 1l4 3 6 9v1zm34 109-1-2-1-12-2-11v-4c8 3 10 21 4 29z"/>
      <path class="st3" d="m664 960-1-2 1-10v-50h1l1 2v58l-1 2h-1zm-53 4v-26l1-1 1 1v48l-1 1-2-1v-21l1-1zm24-66 1 2v59l-1 1-1-2v-57l1-3zm51 39h2v46l-1 2h-1l-1-2v-41l1-5zm-136-5c2-1 2 0 2 1v38l-2-1v-38zm70 40-1 5v10l-1 1-1-1v-14c0-3 0-2 3-2h7v15l-1 1-1-1v-10c-3 1-2-3-5-4zm127-4v-37c0-2 0-2 2-2v36l-2 3zm-177-35v21l-1 10 1 7v3l-2 1-1-3v-39l1-2 2 2zm104 44-1-2-2 3v8l-1-2v-13h10l1 1v12l-1 2-1-2-1-4v-4l-1-5-3 6zM550 834l-5 11-9 8v-2l5-11c1-3 5-4 9-6zm200-2c7 2 10 7 12 13l1 4v1l-2-2-8-8c-2-2-3-5-3-8zm-20 143v-45h1v1l1 8v11l-1 14 1 8-1 4-1-1zm-201-30 6 8 2 5-1 5-2-2-4-6-2-4v-7l1 1zm242-4 1 4a14 14 0 0 1-5 10l-2 4-1 1-1-5 1-5 6-9h1zm-58-139-14-7-3-3c5-1 9-1 12 2l5 7v1zm-81 169v6l1 8-1 2h-3l-1-1 1-12-1-1c0-2 1-2 3-2h1zm-29-179-1 3-3 1-9 5-3 2c1-4 3-7 6-9 3-3 6-1 10-2zm-69 215h5c3 1 4 4 6 7v2l-1 2h-2l-5-6-3-4v-1zm234-3-10 11-2-4 2-5 4-2h4l1-1 1 1zM560 810v-3l2-2 7-9 2 3-1 4c-2 4-6 5-10 7zm-3 104c-3 0-5-1-5-4l1-2 1-2 1-1h4l2 1 1 2v3l-1 2-2 1h-2zm2-8h-1l-1 3v2h3l-2-2 1-3zm-30 66v-2c-2-5-5-9-9-13l-1-1a18 18 0 0 1 12 10v2l-1 4h-1zm202-177a3981 3981 0 0 1 9 13h-1l-8-6-2-3 2-4zm49 157-6 7-4 9-2-3v-3c2-4 5-7 9-9l3-1zM591 788a496 496 0 0 1-10 11l-3-1v-1c3-4 7-8 12-9h1zm192 79v27a29 29 0 0 1 0-27zm-268 3c6 6 5 22 0 28 1-10 2-18 0-28zm208-73c-4 2-6 0-9-3a141 141 0 0 1-4-8c11 6 10 7 13 11zm-71 155v-53l1 2v25l-1 10v16zM535 838l2 7-3 6c-2 3-2 7-6 8h-1l2-4 5-10 1-7zm245 99c-1-8-1-16 6-22l-6 22zm-135-38v54-54zm-132 20c7 6 7 14 7 22h-1l-3-11-3-11zm222 74v-1c0-2 2-3 3-5l5-7c1-2 2-3 4-2v2l-10 11-2 3v-1zm-172 2-7-11-4-3-1-2 3-1 2 2 2 3 5 10v2zm201-160c0 4 1 8 3 11l4 10c-3-2-6-5-7-9v-12zM645 986v-3h3l-1 2h2c1 0 2-1 3 2h-10v-17l1 2-1 6 1 6 2 2zm-97-159 1-2 8-10 1-1a14 14 0 0 1-10 13zm193 82 1 3c-3 0-5-2-5-4l1-3 2-2 2 1-1 5zm9 73h1v2l-6 5-2 2-1 1v-2l5-7 3-1zM539 833c0-3 1-4 3-3l2 2v2l-1 1h-1v1h-1c-2-1-2-2-2-3zm79 135h30v1h-30v-1zm62 0h-28 2l11-1 11 1 4-1v1zm71-144c-1 1-2 0-3-1l-4-4-1-6 8 11zM516 949c0-2 1-3 3-3 2 1 3 3 2 5v1h-1l-1 1h-1l-1-3-1-1zm121 38v-17l1 2v15h-1zm146-42c0 2 0 3-2 3-2 1-3 1-3-1l2-5 3 2v1zm-23-115-1 3c-2 1-3-1-3-3s0-3 2-3 2 1 2 3zm-242 79-2 3h-2l-1-4 2-2c2-1 3 1 3 3zm258-43c0-2 1-3 3-3s2 1 2 3-1 3-2 3c-2 0-3-1-3-3zm-58 161-12 1v-1l9-2c3 0 3 0 3 2zm25-114 2-7c-2 1-3 0-2-2v-1l1 1 2 1v5l-2 2-1 1zm39-8 1-3c2 0 3 1 3 3l-2 4-2-4zm-226 88-8-8v-1c0-1 0 0 0 0l2-1 3 3 3 5v2zm22-189c0 2-1 3-2 3l-2-1-1-2c0-2 1-3 2-3s3 1 3 3zm85 182c-2-1-1-2-1-3v-13l1 1v15zm31 70c-4-2-5-5-8-7l-1-2h1l8 6v3zm-98-27-7-1h-3l-2-1c1 0 1-2 2-1l9 2 1 1zm-45-35v1l-1 1-1 1h-1c-1 0-2-1-2-3l2-2c2-1 3 0 3 2zm117-23v15l-1-2v-12l1-2v1zm-53 77-1 1-6 7h-1l-1-1 2-2 5-5h2zm140-56c0 2-1 4-3 3l-1-1-1-1v-2l1-1h1c2 0 3 1 3 2zm-28-187h-3l-1-3c0-2 1-2 2-2 2 0 2 1 2 2v3zm-208 67 1-3-2 1 1-3h2c1 0 2 3 1 4 0 1-1 2-3 1zm93-87-6 3-5-1 5-2h6zm76 0c1-2 2-1 3-1l7 1-1 2c-2 1-4 1-6-1l-3-1zm-37 86 1 2-1 13v-15zm-3 15-1-1v-14h1v15z"/>
      <path class="st3" d="M646 976v-4l1-2 1 2-1 3v6l-1-1v-4zm7-90v-15h1v15h-1zm0 95v-1l-1-6v-1l1-2 1 2v8l-1 1v-1zm0-143v12l-1-2v-8l1-2zm5 147c-2-5-1-10-1-15h1v15zm-13-99v-15 15zm-5 4h17-17zm10-51v11-11zm5 27-5 1-5-1h10zm-9-27v11-11z"/>
      <path class="st4" d="M621 892c2-1 0-4 2-6l1 4 1 2 1-2-1-2 3 1v-3l1-1v-1a4 4 0 0 0 1-3v-2l1-2 1-2 2 3v4l1 3 1 1v-29l1-6 1-2v6h1v-2l1-2c2-2 1-5 1-8 1-3-1-7 2-10l1 2c1-2 2-3 1-5l-1-2 1-1v-2h2v-5c0-1-1-2 1-3v-5l1-5v-15l-1-2c-2-1-2-2-1-5 1 3 3 0 4 2l1-1c1 2 1 3-1 5l-1 4 1 9v6l1 3v4c2 1 1 2 1 3-1 2-2 4 1 5l1 2v2c-1 2 0 4 1 6l1-2h1v13l1 4 1 3v2h1v-7h1v1l1 9 1 3v25c0-2 3-4 1-6v-1l2-4 1 2v-3h1v2l1 6 1 6h3c0 1-2 2 0 4l1-3v-3l1-1v4l1 2v37c0 2 0 3 2 2h2c2 1 2 0 2-1v-4l1-3 1-2 1-2h1v3l1 1 1 2v5l2 1h22c2 0 2 0 2-2l1-7v-1l1-3v-3h1l1 4v-4l1-3 1-2-1-2 3 1v3h2v7l1-4 1 5 2 2 1-2v-4h1l1 4 1 2v-14l1-7v-3l1-2 1 7h1v-9l3-1-1-4s-1-2 2-1h3l-1 3c0 2 0 3 3 2v10c2-2 1-5 2-7a94 94 0 0 1 2 8l1 4-1 13 1 1c2-2 1-5 2-7h1v5c0 2 0 2 2 2v36l9-11 6-13 2 4h1v-4l-4-15-1-11v-6l1-1 4 1-1-4c-3-8-6-15-7-23l-2-9 1-4h3v-1l-2-2-16-15-8-11 1-1 5-1h1c-13-6-26-14-38-22v-1l7-1v-1c-11-2-22-7-32-13 3-2 6 0 9-1l-2-1c-7-2-13-3-19-6h-1v-1h19l8 2 5 2c0-3-2-4-4-5l1-1 8 3c6 2 10 5 13 10l3 3h2v-6c5 3 10 7 13 12h1l-1-7c13 9 23 19 26 35l3-9 4 5c4 7 7 14 8 21l3 13 2 4 3-6 1 1c3 7 4 15 4 23 1 8 0 17-3 25 3-1 5-3 7-6v8l-1 8-1 12-6 19-2 3-3 2c4 0 6-2 9-3l-6 19-8 13-5 6-4 6-3 4v1l2 1-1 3-4 6-8 9-7 5-1 1-2 6-4 4c-1 1-2 1-2 3 1 3-2 4-4 5-4 3-9 4-14 3l-1 2v3l-3 1c-2 1-3 2-3 5 1 1-3 4-6 4a10 10 0 0 1-8-1v2l-1 2a7 7 0 0 1-6-1l-2-1c1 3 1 4-3 4l-4 1-14 7-5 1-4 1-4 1h-9l-12-1c-5 0-10-3-16-4l-9-5-2-1c-4 1-5 0-5-3v-1l-5 2h-3v-2l-1-1-5 2c-2 1-4-1-6-2l-2-2v-4l-4-1-2-2v-3l-2-1c-4 1-9 0-13-3-2-1-5-3-4-6l-1-1-5-5-3-3c-4-2-8-5-11-9l-7-9-5-7 2-1-2-4-7-8c-6-6-10-12-12-19l-6-17v-1l8 4h1l-1-2c-3-2-5-5-5-8a128 128 0 0 1-6-21l-1-7v-14c2 2 3 5 7 5l-2-6a84 84 0 0 1-1-23l1-9 3-10v-1l1 1 3 4 1-3 5-19 7-16 3-4 5 8c2-17 13-27 25-36v7l6-7 8-6v7h1l1-1 10-10c3-3 7-3 10-5l5-1c-1 2-4 2-4 6 10-6 21-6 32-4l-22 7 1 1h7v1l-7 4-9 4-11 4-5 2 1 1h7l1 1-3 1-12 9a404 404 0 0 1-26 14l9 1-9 11-14 13-4 4-1 2h2c1-1 2-1 2 1v9l-2 9-4 12-3 8v2l2-1 3-1c1 7 0 14-2 20l-3 14 1 5 2-5 7 13 9 12v-13l1-8-1-10v-7c2-1 1-3 1-5l1-2 1 1v5l1 2 1-2v-6c0-5-1-10 1-15v-2l1-2 1 2v4l1 1v-8c0-2 1-2 2-2v-5h4l1 1-1 1c0 2 0 3 2 3v9l1 1 1-7h1v2a107 107 0 0 1 1 8v15l1 2c3-2 0-5 2-7l1 7c2 0 2 0 2-2l1-6h1v4c2-3 1-5 1-7 2 0 2 0 2-2-1-1-1-2 1-2h1v4h2v7l1-4 1 1v2c1 3 2 5 1 8v2c0 1 0 2 2 1l5 1h18l2-1v-4l1-3 1-1v-3h1c1 3 4 6 3 9l1 3 5-1v-30c2-3 1-6 0-9zm64 126-2 1-10 4-15 2-8 1h-13l-7-1-10-4-3-1 1 2 4 11v11c0 5 0 9-2 13l-3 7v2l9 3 12 4 12 1h8l8-2 13-4 6-3 1-2-2-3a48 48 0 0 1-3-25l2-12 2-5zm-33-23h-14l-3 1c-3 1-6 4-10 3h-17v1l3 6 1 1 4 2c7 2 13 3 20 3h26l14-2 10-3h2c2 1 3 0 3-2l2-4 2-3h-3l-15 1-5-1-5-2-2-1-4-1-1 1c-2 0-3-1-3-2v-4h-13c-2 0-4 0-4 2l-1 2h11l2 2zm-34 35v-3l-3-6-3-2c-2-1-3-3-3-5l-2-3-3-1-3 1h-1l-1-8-2-3c0-2-2 0-3-1l-2 2c0-4-5-7-8-6l-5 2c-2 2-1 4 0 7h-2c-2 0-3 1-3 2l2 4 3 3c-2 3-2 5 2 7l6 3h2c1-2 2-3 5-1h2l-1-2-2-2c-3-3-6-7-7-11v-2l1-2 1 1 3 9c3 5 7 9 12 12 1 1 3 2 4 1-1-2-3-4-3-7l5 6 4 4 5 1zm77-4 1 1c10-5 16-14 20-24v4c-2 5-5 10-9 13l-2 2 1 1 1-2h2l2-1a4 4 0 0 1 3 2h1l4-1c5-3 7-4 4-9 2-1 4-3 5-6 1-2-1-4-3-3h-2l1-2v-2l-1-2-2-3h-4l-2 1c-2 0-4 2-4 3 0 2-1 2-2 1-2-1-3 0-4 2-2 2-2 5-2 8l-1 2-2-1h-2l-2 1-2 2c0 2-2 5-4 6l-4 6-2 3 1 3 2-1 4-2 6-8 1-2 1 1-4 7zm-154-67h-1l-3 5-5 12-3 12c-1 5-1 10 3 13h1c0 3 3 3 5 3l6 1 1-1c-2-6-2-11 0-16l4-10a3 3 0 0 0 0-3l-3-3-4-10-1-3zm218-3-3 5c0 4-2 8-5 11l-1 2 1 1 5 13v10l-1 4 7-1 3-1h2c0-2 2-4 3-5l1-2c1-5 0-11-2-16-1-6-3-10-6-15l-4-6zm-65 81c-1-3-2-4-5-2l-7 6v3l2 1h11l8 2 6 2v1h-1l-3-2c-2-1-2 0-2 1v6l3 4 5 1c4 0 5-2 4-5l1-3c1 0 3-1 2-3 0-2-1-3-3-3-2-1-2-1-2-3 1-2 0-4-1-4l-3-1h-4l1-1c1-2 1-4-2-5h-3l-4 1-3 4zm-100 13 3-2 9-3 12-1c1 0 2 1 3-1l-1-3-6-4-1-2h-3l-1 3h-1l-1-1v-2l-5-1h-5v1l-1 1v1l1 1 1 2h-4c-4 0-6 2-4 6l-1 1-2 1-1 1-1 1v2c0 2 1 3 3 4l-1 2 1 2 2 2h3l3-2 2-2 1-3v-6l-5 2zm-30-15c-1 5 0 7 4 9l9 1c2 0 2 0 2-2l1-3c1-1 1-2 3-2l4-1 1-1 3-5-7-1-11-1h-3l3-1h5c3 0 6-2 5-3h-4l-3-2-1-2-1-2-3 1-1 2-3 1-3-1-3 2-2 3v3l1 2 2 2 2 1zm147-5 2 4c1 2 1 2 4 2 4 0 7 2 6 6l2 2 11-2c3-2 4-4 3-8v-1l2-1 2-2 1-2-1-2c0-2-1-3-3-4h-5c-1 0-2 0-2-2l-2-1-3-1c-1 0-2 0-1 1 0 3-1 5-4 5h-4l2 2 7 1h3l2 1c-7 1-15 0-22 2zm-140-13 1-3-1-2-2-3v-9l-2-2c-2-1-3 0-4 2v1l-1-1c-1-3-4-4-7-3l-3 3v4l1 4a4 4 0 0 0-4 4l1 3 3 2c-1 2-2 3-1 5l2 2h4l2-4 2-2h3l2-1-8-12v-1c3 5 8 10 12 13zm168-17c-1-3-1-4-3-3l-3 2v11l-2 1-1 1 1 4 13-13c-2 5-5 9-9 13h2l5 2 2 4 2 1 2-1 2-1 1-2v-1l-1-2v-1l2-2v-5l-2-2-1-1 1-4a6 6 0 0 0-4-6c-3 0-5 1-6 4l-1 1zm-70-102v68h11l1-1v-1h-7c-2 0-2 0-2-2v-62c0-2 0-3-2-2h-1zm-52 67h1l10 1c2 0 2-1 2-3v-34l1-19-1-11-1-1c-1 0-2 0-2 2v64h-8l-2 1zm33-6 1 1 1 5h1l1 1h8l6-1v-3l-4-1h-10v-1h1l2-3 1-2h-3l-3 1-2-2h-3l-1 1c-2 2-4-1-5-1a8 8 0 0 0 4 7h-13v2c0 2 0 2 2 2h14l1-4 1-2zm-137-9 1-2 1-9-2-10-4-11-5-4c1 12 2 24 9 36zm282-40h-1l-4 5c-2 4-4 7-4 11-1 4-2 9-1 14v4l1 1 1-1 2-4a150 150 0 0 0 5-22l1-8zm-279-46 1 1a48 48 0 0 0 10-14c3-4 4-9 3-14l-2-6-1-1-1 1c0 5-2 9-4 13l-4 12-2 8zm7 37c6-10 8-22 7-34l-5 5c-3 4-4 9-4 13l1 8v5l1 3zm249-75-1 2c-2 3-2 6-2 9 0 5 1 10 4 14a43 43 0 0 0 10 10l-5-17c-3-4-4-8-5-13l-1-5zm4 72 1-1 1-8-1-15-7-10h-1c-1 12 2 24 7 34zm-61 39c-3 0-4 0-4 3v42c0 1 0 2 2 1l2-1v-45zm-205 24 5 9 5 11 5 5v-2l-1-11c0-3-1-5-3-7-3-3-6-4-10-5h-1zm280-4h-3l-8 5c-2 2-4 5-4 9l-1 7v4h1l3-4a531 531 0 0 0 11-20l1-1zM554 804h-1l-10 13-6 8v2h1l10-6c4-3 8-7 7-13l-1-4zm192-3-1 5a12 12 0 0 0 3 10c4 4 9 7 15 9l-4-8-5-6-8-10zm43 64-1 2-1 4-2 11 3 18 2 3h1v-14l-2-20v-4zm-202 73h-1c-2 0-2 0-2 2v43l1 1h2v-46zm-78-31a40 40 0 0 0 1-38v11l-1 16-1 2 1 9zm15 27a719 719 0 0 1 3-28l-2 1-4 6-2 7c0 5 2 9 3 13l2 1zm56-124-5-1-5 1c-3 0-6 2-8 5l-4 8v2l2-2 16-9 4-4zm162 12-6-10-4-3c-3-2-7-1-10 0h-3a45 45 0 0 0 8 6 73 73 0 0 1 15 7zm34 109c6-8 4-26-4-28v3l2 11 1 12 1 2zm-112 29h1v-2l1-11v-46l-1-3h-1v50l-1 10 1 2zm-53 4v21l1 2 1-2v-47l-1-1-1 1v26zm24-66-1 3v57l1 2 1-1v-60l-1-1zm51 38-1 6 1 23v16l-1 2 1 2h1l1-2v-46l-2-1zm-136-4v38l2 1v-38l-2-1zm70 40c3 1 2 4 5 4a145 145 0 0 0 1 11l1-1v-15h-7c-3 0-3-1-3 2v14l1 1 1-1 1-6v-9zm127-4v1l2-3v-37c-1 0-2 0-2 2v37zm-177-35-2-2-1 2v39l1 3 1-1v-20l1-21zm104 44 2-6 2 5v4l1 4 1 2 1-2v-12l-1-1h-10v15l1-2v-6l2-3 1 2zM550 834c-4 2-8 3-9 7a170 170 0 0 0-5 12l9-8 5-11zm200-2c0 3 2 6 3 8l8 8 2 2v-1l-1-4c-2-6-5-11-12-13zm-20 143h1l1-3-1-8 1-15v-11l-1-7v-1h-1v45zm-201-30h-1v6l2 5 4 5 2 2 1-5-2-4-6-9zm242-4h-1l-6 9-1 5 1 5v-2l3-3 3-5 1-5v-4zm-58-139v-1l-4-7c-4-3-8-3-12-2l2 3 14 7zm-81 169h-2c-2 0-2 0-2 2l1 1-1 12 1 1h3l1-2-1-8v-6zm-29-179c-4 1-7-1-10 2-3 2-5 5-7 9l4-2 9-5 3-1 1-3zm-69 215v1l3 4 5 6h2l1-2v-2c-1-3-2-6-6-7h-5zm234-3-1-1-1 1h-4l-3 2c-2 1-2 3-2 5l1 4 10-11zM560 810c4-2 8-3 10-7v-7l-1 1-7 8-2 2v3zm-3 104h2l2-1 1-2v-4l-2-1-1-1h-4l-1 1-1 2-1 2c0 3 2 4 5 4zm-28 58h1l1-4v-2c-1-3-2-5-5-7l-7-3 1 2a29 29 0 0 1 9 14zm202-177a6 6 0 0 0 0 8l8 5h1v-1l-1-2-8-10zm49 157-3 1c-4 2-7 5-9 9v3l2 3 4-9 6-7zM591 788h-1c-5 1-9 5-12 9v1l3 1 3-2 7-9zm192 79a29 29 0 0 0 0 27v-27zm-268 3c2 10 1 18 0 28 5-6 6-22 0-28zm208-73c-3-4-2-5-13-10v1l4 6c3 3 5 5 9 3zm-71 155v-53 53zM535 838l-1 7-5 10-2 4h1c4-1 5-5 7-8l2-7-2-6zm245 99 6-22c-7 6-7 14-6 22zm-135-38v53-53zm-132 20 3 11 3 11h1c0-8 0-16-7-22zm222 74 2-2c4-4 6-9 10-12v-2c-2-1-3 1-4 2l-5 8-3 5v1zm-172 2v-2l-5-11-2-2-2-2-3 1 1 2 4 3 7 11zm201-160v12c1 4 4 7 7 9l-4-10c-2-3-3-7-3-11zM645 986l-2-2v-12l-1-2v16h10c0-2-2-1-3-1h-1l1-2h-3l-1 3zm-97-159 7-5c2-3 3-5 2-8v1l-8 10-1 2zm192 82 1-5-1-1-2 2-1 3c0 2 2 4 4 4 1-2 1-3-1-3zm10 73-3 1-5 8v1l1-1 2-2 6-5v-2h-1zM539 833l1 3h1l1-1h1l1-1v-2l-2-2c-2-1-3 0-3 3zm79 135v1h30v-1h-30zm62 0v-1l-4 1-12-1-11 1h-1 28zm71-144-8-11 1 6 4 4c1 1 1 2 3 1zM516 949v1l2 2 1 1 1-1 1-1c1-2 0-5-2-5s-3 1-3 3zm121 38h1v-15l-1-2v17zm146-42v-1l-3-2-2 5c1 1 2 2 3 1 2 0 2-1 2-3zm-23-115c0-2 0-3-2-3s-2 1-2 3 1 4 3 3c2 0 1-2 1-3zm-242 79c-1-2-2-4-3-3l-2 2 1 4h2l2-3zm258-43c0 2 1 3 3 3l2-3c0-2-1-3-2-3-2 0-3 1-3 3zm-58 161c0-2 0-3-3-2l-9 2v1l12-1zm25-114 1-1 2-2v-5l-2-1-1-1v1c-1 2 0 3 2 2-3 4-3 4-2 7zm38-8 2 4c2 0 3-2 3-4 0-1-1-3-3-3l-1 3h-1zm-225 88v-2l-3-5-3-3-2 1v1l8 8zm22-189c0-2-1-3-3-3-1 0-2 1-2 3l1 2 1 1c2 0 3-1 3-3zm85 182v-15l-1-1v12c-1 2-1 3 1 4zm31 70-1-3-8-6v2l9 7zm-98-27v-1l-10-2-2 1 2 1h3l7 1zm-45-35c0-2-1-3-3-3s-2 1-2 3 1 3 2 3h1l1-1 1-1v-1zm117-23v-1l-1 2v12l1 2v-15zm-53 77h-2l-5 5-2 2 1 1h1l6-7 1-1zm140-56c0-1-1-2-3-2h-1l-1 1v2l1 1 1 1c2 1 3-1 3-3zm-28-187v-3c0-1 0-2-2-2s-3 0-3 2l1 3h4zm-208 67c2 1 3 0 3-1 1-1 0-4-1-4h-2l-1 3 2-1-1 3zm93-87h-6l-5 2 5 1 6-3zm76 0 3 1c2 2 4 2 6 1l1-1-7-2-3 1zm-37 86v15l1-13-1-2zm-3 15v-15h-1v14l1 1zm-2 90v4l1 1v-6l1-3-1-2-1 2v4zm7-90h1v-15h-1v15zm0 95h1v-9l-1-2-1 2v2l1 6v1zm0-142v-1l-1 2v8l1 2v-11zm5 146v-14h-1c0 4-1 9 1 14zm-13-99v-15 15zm-5 4h17-17zm10-51c-2 3-2 7 0 11v-11zm5 27h-10l5 1 5-1zm-8-27v11c0-1 1-9-1-11h1z"/>
      <path class="st4" d="m500 951 2-4 1 1h1l1 1v1c0 2-2 4-3 4l-2-3zm13-93c1 2-1 3-2 3l-3-3 3-3 2 3zm286 43-1-1-1-2v-1l1-2h1l2 2c0 1 0 3-2 4zm-9-46c0 2-1 4-2 3-1 0-2-1-2-3v-2l2-1 1 1 1 2zm7 94c-3-1-3-4-1-6 4 2 4 3 1 6zm-296-44c-3-1-4-2-3-4l1-1 1-1h1l1 1 1 1v1l-2 3zm28-6c0-3 0-4 2-4s2 2 2 3v2l-1 1h-1c-2 0-2-1-2-2zm242-4c0 1-1 3-3 3-2-1-2-2-2-3 0-2 1-3 3-3 1 0 2 1 2 3zm4 106c-2-1-2-1-2-3l2-3 2 3-1 2-1 1zm-243-69c0 2-1 3-2 3s-2-1-2-3v-2l2-1 2 3zm-5 68c0 2 0 3-2 3-1 1-3-1-2-2l2-3 2 2zm241-71v-1c0-1 0-2 2-2 1 0 2 1 2 3l-1 1c0 1 0 2-2 1l-1-2zm2-110c0 2-1 3-2 3-2 0-2-1-2-3l-1-1 1-1 1-1 1 1h1l1 1v1zm-238 0 1 2v3h-1v1h-1l-1-1v-3l2-2zm232 39c0 2-1 3-2 3l-2-3 2-3 1 1h1v2zm-229 2 2-2 2 2-2 3c-1 0-2-1-2-3zm28-29c0 1-1 3-2 2l-2-2c0-1 1-3 2-2l2 2zm176-4h1v1h1v1l-2 3c-2 0-2-2-2-3s0-2 2-2zm-144-21c0 1 0 3-2 3s-2-1-2-3l2-2 2 2zm145-13c0 1 0 2-2 2-1 0-2-1-2-3l2-1 2 2zm-33 15c-2 0-2-1-2-3l1-1 1-1 2 2c0 1 0 3-2 3zm-146-11c-1-1-2-2-1-3l2-1 1 1c0 1 0 3-2 3zm92 260 2-2 3-3v-4l-1-2-1-1c-3-1-4-3-3-6v-2c1-3 2-3 4-2l5-1-1 3v1h-3l-1-1-3 1v2l1 1h1l3 1 2 1 1 6-2 4-5 4h-2zm23-23v3h-1v1l-5-1-2 1 1 1v1l4 2 2 1 1 2-1 7c-2 3-4 4-6 5h-2l1-2c4-1 5-3 5-7 0-2-2-3-4-3-2-1-3-3-2-6v-1c2-4 1-4 6-3l3-1zm-48 22c2 0 2-1 2-3v-15h-3l7-4v20l1 2-3 1-4-1zm15 3c-3-1-3-1-2-3l5-15c1-2 0-2-1-2l-5 1-1-1 1-4a11 11 0 0 0 10-1v2l-6 15-1 8zm16-53h-30v-2h39l1 1-1 1h-9zm0-3h-25l-2-1 2-1h29l2 1-2 1h-4zm-86 35 1-3 7-3h1l-9 6zm148-7 8 3 1 2h-1l-5-3-3-1-1-1h1zM559 906l-1 3 2 2-3-1v-1l1-3h1z"/>
    </g>
    <path class="st5" d="M271 1199h1414v45H271v-45z"/>
    <defs>
      <filter id="Adobe_OpacityMaskFilter" filterUnits="userSpaceOnUse" x="271" y="1197" width="1414" height="49">
        <feColorMatrix values="1 0 0 0 0 0 1 0 0 0 0 0 1 0 0 0 0 0 1 0"/>
      </filter>
    </defs>
    <mask maskUnits="userSpaceOnUse" x="271" y="1197" width="1414" height="49" id="path-144-inside-1_218_15522_00000140703848437794807390000013804724159402979221_">
      <path d="M271 1199h1414v45H271v-45z" style="fill:#fff;filter:url(#Adobe_OpacityMaskFilter)"/>
    </mask>
    <path d="M271 1201h1414v-4H271v4zm1414 41H271v4h1414v-4z" style="mask:url(#path-144-inside-1_218_15522_00000140703848437794807390000013804724159402979221_);fill:#d9d9d9"/>
    <path class="st5" d="M271 29h1414v45H271V29z"/>
    <defs>
      <filter id="Adobe_OpacityMaskFilter_00000001628613423030154300000005310394472498903449_" filterUnits="userSpaceOnUse" x="271" y="27" width="1414" height="49">
        <feColorMatrix values="1 0 0 0 0 0 1 0 0 0 0 0 1 0 0 0 0 0 1 0"/>
      </filter>
    </defs>
    <mask maskUnits="userSpaceOnUse" x="271" y="27" width="1414" height="49" id="path-146-inside-2_218_15522_00000057111829859525360090000007059132018387604133_">
      <path style="fill:#fff;filter:url(#Adobe_OpacityMaskFilter_00000001628613423030154300000005310394472498903449_)" d="M271 29h1414v45H271V29z"/>
    </mask>
    <path d="M271 31h1414v-4H271v4zm1414 41H271v4h1414v-4z" style="mask:url(#path-146-inside-2_218_15522_00000057111829859525360090000007059132018387604133_);fill:#d9d9d9"/>
    <path class="st10" d="m408 1229-4-10h2l3 8 3-8h2l-5 14h-2l1-4zm6-1 1-1 1-1v-7h7v10h-2v-8h-3v4l-1 2-1 2h-2v-1zm14 1h-1l-1-1 1-1 1-1 1 1v2h-1zm13-14h2l5 14h-1l-2-4h-6l-1 4h-2l5-14zm4 8-3-6-2 6h5zm5-4h2v4h2l2-4h2l-3 5 4 5h-2l-3-4h-2v4h-2v-10zm13 10-2-1-1-2 1-2 3-1h2v-2l-2-1-1 1-1 1h-2v-1l1-1 1-1h2l3 1 1 2v7h-1l-1-1h1l-4 1zm0-1 2-1h1v-3h-2l-2 1v2l1 1zm7-1h1l1-2v-6h7v8h1v5h-1v-3h-7v3h-2v-5zm7 0v-6h-3v4l-1 2v1h4zm9 2h-2l-1-1-1-2v-4a4 4 0 0 1 2-3 6 6 0 0 1 4 0l1 1 1 2 1 2v1h-8l1 2 2 1 2-1 1-1h1l-1 2-3 1zm0-8h-2v2h5c0-2-1-2-3-2zm7-2h3l2 6 3-6h3v10h-2v-8l-3 6h-2l-2-6v8h-2v-10zm14 0h1v8l5-8h2v10h-2v-8l-4 8h-2v-10zm11 0h2v4h1l3-4h2l-3 5 4 5h-3l-3-4h-1v4h-2v-10zm13 10-3-1-1-2 2-2 3-1h2v-2l-2-1-2 1v1h-2v-1l1-1 1-1h2l3 1 1 2v7h-2v-1l-3 1zm0-1 1-1h1l1-1v-2h-2l-2 1-1 1 1 1 1 1zm17-6-5-7h3l3 5 3-5h2l-4 7 5 7h-3l-3-6-4 6h-2l5-7zm12 7-3-1-1-4 1-4 3-1 4 1 1 4-1 4-4 1zm0-1 2-1 1-3-1-3-2-1-2 1v6l2 1zm10-4-4-5h2l3 4 2-4h2l-3 5 3 5h-2l-2-4-3 4h-2l4-5zm6 4 1-1 1-1v-7h7v10h-2v-8h-3v4l-1 2-1 2h-2v-1zm16 1-3-1-1-4 1-4 3-1 4 1 1 4-1 4-4 1zm0-1 2-1 1-3-1-3-2-1-2 1v6l2 1zm7-9h4l3 1 1 2-1 1v1l1 1v1l-1 2-2 1h-5v-10zm6 3-1-1h-3v2h4v-1zm0 4v-1h-4v2h4v-1zm7 3-2-1-1-2 1-2 3-1h2v-2l-2-1-1 1-1 1h-2l1-1v-1l2-1h1l3 1 1 2v7h-1v-1l-4 1zm1-1 1-1h1v-1l1-1v-1h-3l-2 1v2l2 1zm261 1-4-10h2l3 8 3-8h2l-5 14h-2l1-4zm6-1 1-1 1-1v-7h7v10h-2v-8h-3v4l-1 2-1 2h-2v-1zm14 1h-1l-1-1 1-1 1-1 1 1v2h-1zm13-14h2l6 14h-2l-2-4h-6l-1 4h-2l5-14zm4 8-3-6-2 6h5zm5-4h2v4h2l2-4h2l-3 5 4 5h-2l-3-4h-2v4h-2v-10zm13 10-2-1-1-2 1-2 3-1h2v-2l-2-1-2 1v1h-2v-1l1-1 1-1h2l3 1 1 2v7h-1l-1-1-3 1zm0-1 1-1h2v-3h-2l-2 1v2l1 1zm7-1h1l1-2v-6h7v8h1v5h-1v-3h-7v3h-2v-5zm7 0v-6h-3v3l-1 1v3h4zm9 2h-2l-1-1-1-2v-4a4 4 0 0 1 2-3 6 6 0 0 1 4 0l1 1 1 2 1 2v1h-8l1 2 2 1 2-1 1-1h1l-1 2-3 1zm0-8h-2v2h5c0-2-1-2-3-2zm7-2h3l2 6 3-6h3v10h-2v-8l-3 6h-1l-3-6v8h-2v-10zm14 0h1v8l5-8h2v10h-2v-8l-4 8h-2v-10zm11 0h2v4h1l3-4h2l-3 5 4 5h-3l-3-4h-1v4h-2v-10zm13 10-3-1-1-2 2-2 3-1h2v-2l-2-1-2 1v1h-2v-1l1-1 1-1h2l3 1 1 2v7h-2v-1l-3 1zm0-1 1-1h1l1-1v-2h-2l-2 1-1 1 1 1 1 1zm17-6-5-7h3l3 5 3-5h2l-4 7 5 7h-3l-3-6-4 6h-2l5-7zm12 7-3-1-1-4 1-4 3-1 4 1 1 4-1 4-4 1zm0-1 2-1 1-3-1-3-2-1-2 1v6l2 1zm10-4-4-5h2l3 4 2-4h2l-3 5 3 5h-2l-2-4-3 4h-2l4-5zm6 4 1-1 1-1v-7h7v10h-2v-8h-3v4l-1 2-1 2h-2v-1zm16 1-3-1-1-4 1-4 3-1 4 1 1 4-1 4-4 1zm0-1 2-1 1-3-1-3-2-1-2 1v6l2 1zm7-9h4l3 1 1 2v1l-1 1 1 1v1l-1 2-2 1h-5v-10zm6 3v-1h-4v2h4v-1zm0 4v-1h-4v2h4v-1zm7 3-2-1-1-2 1-2 3-1h3v-1l-1-1-2-1-1 1-1 1h-2l1-1v-1l2-1h1l3 1 1 2v7h-1v-1l-4 1zm1-1 1-1h1v-3h-2l-2 1v2l2 1zm261 1-4-10h2l3 8 3-8h2l-5 14h-2l1-4zm6-1 1-1 1-1v-7h7v10h-2v-8h-3v4l-1 2-1 2h-2v-1zm14 1h-1l-1-1 1-1 1-1 1 1v2h-1zm13-14h2l6 14h-2l-2-4h-6l-1 4h-2l5-14zm4 8-3-6-2 6h5zm5-4h2v4h2l2-4h2l-3 5 4 5h-2l-3-4h-2v4h-2v-10zm13 10-3-1v-2l1-2 3-1h2v-2l-2-1-2 1v1h-2v-1l1-1 1-1h2l3 1 1 2v7h-1v-1l-4 1zm0-1 1-1h2v-3h-2l-2 1-1 1 1 1 1 1zm7-1h1l1-2v-6h7v8h1v5h-1v-3h-8v3h-1v-5zm7 0v-6h-3v3l-1 1v3h4zm9 2h-2l-1-1-1-2v-4a4 4 0 0 1 2-3 6 6 0 0 1 4 0l1 1 1 2 1 2v1h-7v2l2 1 2-1 1-1h2l-2 2-3 1zm0-8h-2l-1 2h6c0-2-1-2-3-2zm7-2h3l2 6 3-6h3v10h-2v-8l-3 6h-1l-3-6v8h-2v-10zm14 0h1v8l5-8h2v10h-2v-8l-4 8h-2v-10zm11 0h2v4h1l3-4h2l-3 5 4 5h-3l-3-4h-1v4h-2v-10zm13 10-3-1v-2l1-2 3-1h2v-2l-2-1-2 1v1h-2v-1l1-1 1-1h2l3 1 1 2v7h-1l-1-1-3 1zm0-1 1-1h1l1-1v-2h-2l-2 1-1 1 1 1 1 1zm17-6-5-7h2l4 5 3-5h2l-4 7 5 7h-3l-3-6-4 6h-2l5-7zm12 7-3-1-1-4 1-4 3-1 4 1 1 4-1 4-4 1zm0-1 2-1 1-3-1-3-2-1-2 1v6l2 1zm10-4-4-5h2l3 4 2-4h2l-3 5 3 5h-2l-2-4-3 4h-2l4-5zm6 4 1-1 1-1v-7h7v10h-2v-8h-3v4l-1 2-1 2h-2v-1zm16 1-3-1-1-4 1-4 3-1 4 1 1 4-1 4-4 1zm0-1 2-1 1-3-1-3-2-1-2 1v6l2 1zm7-9h4l3 1 1 2v1l-1 1 1 1v1l-1 2-2 1h-5v-10zm6 3v-1h-4v2h4v-1zm0 4v-1h-4v2h4v-1zm7 3-2-1-1-2 1-2 3-1h3v-1l-1-1-2-1-1 1-1 1h-2l1-1v-1l2-1h1l3 1 1 2v7h-1v-1l-4 1zm1-1 1-1h1v-3h-2l-2 1v2l2 1zM408 59l-4-10h2l3 8 3-8h2l-5 14h-2l1-4zm6-1 1-1 1-1v-7h7v10h-2v-8h-3v4l-1 2-1 2h-2v-1zm14 1h-1l-1-1 1-1 1-1 1 1v2h-1zm9-14h2v6h2l4-6h3l-5 7 5 7h-2l-5-6h-2v6h-2V45zm17 14-4-1-1-4 1-4 4-1 3 1 1 4-1 4-3 1zm0-1 2-1v-3l-1-3-1-1-2 1-1 3 1 3 2 1zm5 0 1-1 1-1v-7h7v10h-2v-8h-3v4l-1 2-1 2h-2v-1zm12-9h3l3 6 2-6h3v10h-2v-8l-3 6h-1l-3-6v8h-2V49zm18 10-4-1-1-4 1-4 4-1 3 1 1 4-1 4-3 1zm0-1 2-1 1-3-1-3-2-1-2 1-1 3 1 3 2 1zm7-9h7v2h-5v8h-2V49zm12 10-4-1-1-4 2-4 3-1 3 1 1 4c1 2 0 3-1 4l-3 1zm0-1 2-1 1-3-1-3-2-1-2 1-1 3 1 3 2 1zm7-9h1v1h1l1-1h3l2 1 1 1v5l-1 2a4 4 0 0 1-3 1h-2l-1-1v5h-2V49zm4 9 2-1 1-3-1-3-2-1-2 1v6l2 1zm11 1-3-1-1-4 1-4 3-1 4 1 1 4-1 4-4 1zm0-1 2-1 1-3-1-3-2-1-2 1v6l2 1zm7-9h4l3 1 1 2v1l-1 1 1 1v1l-1 2-2 1h-5V49zm6 3v-1h-4v2h4v-1zm0 4v-1h-4v2h4v-1zm7 3-2-1-1-2 1-2 3-1h3v-1l-1-1h-3l-1 1h-2l1-1v-1l2-1h1l3 1 1 2v7h-1v-1l-4 1zm1-1 1-1h1v-1l1-1v-1h-3l-2 1v2l2 1zm323 1-4-10h2l3 8 3-8h2l-5 14h-2l1-4zm6-1 1-1 1-1v-7h7v10h-2v-8h-3v4l-1 2-1 2h-2v-1zm14 1h-1l-1-1 1-1 1-1 1 1v2h-1zm9-14h2v6h2l4-6h2l-5 7 6 7h-2l-5-6h-2v6h-2V45zm17 14-4-1-1-4 1-4 4-1 3 1 1 4-1 4-3 1zm0-1 2-1v-6l-2-1-2 1-1 3v3l3 1zm5 0 1-1 1-1v-7h7v10h-2v-8h-3v4l-1 2-1 2h-2v-1zm12-9h3l3 6 2-6h3v10h-2v-8l-3 6h-1l-3-6v8h-2V49zm18 10-4-1-1-4 1-4 4-1 3 1 1 4-1 4-3 1zm0-1 2-1v-6l-2-1-2 1-1 3 1 3 2 1zm7-9h6v2h-4v8h-2V49zm12 10-4-1-1-4 1-4 4-1 3 1 1 4c1 2 0 3-1 4l-3 1zm0-1 2-1 1-3-1-3-2-1-2 1-1 3 1 3 2 1zm7-9h1v1h1l1-1h3l2 1 1 1v5l-1 2a4 4 0 0 1-3 1h-2l-1-1v5h-2V49zm4 9 2-1 1-3-1-3-2-1-2 1v6l2 1zm11 1-3-1-1-4 1-4 3-1 4 1 1 4-1 4-4 1zm0-1 2-1 1-3-1-3-2-1-2 1v6l2 1zm7-9h4l3 1 1 2v1l-1 1 1 1v1l-1 2-2 1h-5V49zm6 3v-1h-4v2h4v-1zm0 4v-1h-4v2h4v-1zm7 3-2-1-1-2 1-2 3-1h3v-1l-1-1h-3l-1 1h-2l1-1v-1l2-1h1l3 1 1 2v7h-1v-1l-4 1zm1-1 1-1h1v-1l1-1v-1h-3l-2 1v2l2 1zm323 1-4-10h2l3 8 3-8h2l-5 14h-2l1-4zm6-1 1-1 1-1v-7h7v10h-2v-8h-3v4l-1 2-1 2h-2v-1zm14 1h-1l-1-1 1-1 1-1 1 1v2h-1zm9-14h2v6h2l4-6h2l-4 7 5 7h-2l-5-6h-2v6h-2V45zm17 14-4-1-1-4 1-4 3-1 4 1 1 4-1 4-3 1zm0-1 2-1v-6l-2-1-2 1-1 3v3l3 1zm5 0 1-1 1-1v-7h7v10h-2v-8h-3v4l-1 2-1 2h-2v-1zm12-9h3l3 6 2-6h3v10h-2v-8l-2 6h-2l-3-6v8h-2V49zm18 10-4-1-1-4 1-4 4-1 3 1 1 4-1 4-3 1zm0-1 2-1v-6l-2-1-2 1-1 3 1 3 2 1zm7-9h6v2h-4v8h-2V49zm12 10-3-1-2-4 1-4 4-1 3 1 2 4-2 4-3 1zm0-1 2-1 1-3-1-3-2-1-2 1-1 3 1 3 2 1zm7-9h1l1 1 1-1h4l1 1 1 1v5l-1 2a4 4 0 0 1-3 1h-2l-1-1v5h-2V49zm4 9 2-1 1-3-1-3-2-1-2 1v6l2 1zm11 1-3-1-1-4 1-4 3-1 4 1 1 4-1 4-4 1zm0-1 2-1 1-3-1-3-2-1-2 1v6l2 1zm7-9h4l3 1 1 2v1l-1 1 1 1v1l-1 2-2 1h-5V49zm6 3v-1h-4v2h4v-1zm0 4v-1h-4v2h4v-1zm7 3-2-1-1-2 1-2 3-1h3v-1l-1-1h-3l-1 1h-2l1-1 1-1 1-1h1l3 1 1 2v7h-1v-1l-4 1zm1-1 1-1h1v-1l1-1v-1h-3l-2 1v2l2 1z"/>
    <path class="st5" d="m306-176-19 1620h-45l19-1621 45 1z"/>
    <defs>
      <filter id="Adobe_OpacityMaskFilter_00000171692864624489514190000004232184284344134078_" filterUnits="userSpaceOnUse" x="239.5" y="-176.8" width="68.5" height="1621">
        <feColorMatrix values="1 0 0 0 0 0 1 0 0 0 0 0 1 0 0 0 0 0 1 0"/>
      </filter>
    </defs>
    <mask maskUnits="userSpaceOnUse" x="239.5" y="-176.8" width="68.5" height="1621" id="path-154-inside-3_218_15522_00000061440066967161672890000014270026244447244428_">
      <path style="fill:#fff;filter:url(#Adobe_OpacityMaskFilter_00000171692864624489514190000004232184284344134078_)" d="m306-176-19 1620h-45l19-1621 45 1z"/>
    </mask>
    <path d="m304-176-19 1620h4l19-1620h-4zm-60 1620 19-1621h-4l-19 1621h4z" style="mask:url(#path-154-inside-3_218_15522_00000061440066967161672890000014270026244447244428_);fill:#d9d9d9"/>
    <path class="st10" d="M286 76v8h-10v-2h8v-4h-8v-2h10zm0 11v2h-2l2 1v4l-1 1-2 1h-5l-1-1a4 4 0 0 1-1-3v-2l1-1h-5v-2h14zm-9 5 1 1 3 1h3v-4l-3-1-3 1-1 2zm-1 11 1-4 3-1h1l4 1 1 4-1 3-4 1h-1l-3-1-1-3zm1 0 1 2h5l1-2-1-2-2-1h-1l-2 1-1 2zm-2 10 2-3 3-1h3a4 4 0 0 1 2 3 5 5 0 0 1 0 4l-1 1-2 1 1-2 1-1v-1l-1-2-2-1h-1l-2 1-1 1v2l2 1v2l-2-1-1-1v-1l-1-2zm11 7-1 8h-10v-2h9v-4l-9-1 1-1h10zm-11 12 1-1h2v1l-1 1v1l-1-1-1-1zm14 10v5l-1 3-3 1c-1 0-2 0-3-2 0 2-1 3-3 3l-3-2-1-3v-5h14zm-2 2h-4v2l1 3h3l1-2-1-3zm-5 0h-5v5l2 1 2-1v-2l1-3zm-7 14v-2l1-1 2-1h5a4 4 0 0 1 2 2v4l-1 1-2 1-2 1h-1l1-7h-3v4l1 1v2l-2-2-1-3zm9 0-1-2h-2v5c2 0 3-1 3-3zm1 7v1l-2 1h1l1 1v4l-1 1-2 1h-5l-1-1a4 4 0 0 1-1-3v-2l1-1h-5v-2h14zm-9 4 1 2 3 1 3-1v-3l-3-1h-3l-1 2zm9 8v1h-4v5h4v2h-10v-2h4v-5h-4v-2l10 1zm-11 14 1-3 2-1 3 1v4l1 2 1-1 1-1-1-2v-2h1l1 1v1l1 2-1 3-3 1h-7v-2h2l-2-3zm2 0v1l1 1 1 1h1v-4l-1-1-1 1-1 1zm9 8v1l-5 1v5h4v1h-10v-2l5 1v-5l-4-1v-1h10zm-9 10v1l1 1h7v7h-8v1h-4v-1h2v-7h-2v-2h4zm0 8h7v-4h-5l-1-1h-1v5zm-2 8 1-3 4-1h3a4 4 0 0 1 2 3v3l-1 1-1 1-1 1v-2l1-1 1-2-1-1-2-1h-1l-3 1v3l1 1v2l-1-1-1-1-1-1v-2zm10 7v1h-4v2l4 3v2l-5-4-5 4v-2l4-3v-2h-4v-1h10zm-10 13 1-3 4-1 4 1 1 4-1 3-4 1-4-1-1-4zm1 0 1 2 3 1h3v-4l-3-1-3 1-1 1zm9 8v6h-2v-5h-8v-2l10 1zm-10 12 1-4 4-1 4 1 1 4-1 3-4 1h-1l-3-1-1-3zm1 0 1 2h6v-4l-3-1-3 1-1 2zm5 277v8h-10v-2h9v-4h-9v-2h10zm0 11v2h-1l1 1v4l-1 1-1 1h-5l-2-1a4 4 0 0 1-1-3v-2l1-1h1-6v-2h14zm-8 5v1l3 1h1l2-1 1-1-1-2-2-1h-1l-2 1-1 2zm-2 11 1-4 4-1 4 1 1 4-1 3-4 1-4-1-1-3zm2 0v2h6l1-2-1-2-3-1h-3v3zm-2 10 1-3 4-1h2a4 4 0 0 1 3 3 5 5 0 0 1-1 4l-1 1-1 1v-2l1-1 1-2-1-1-3-1-3 1-1 1 1 2 1 1v2l-1-1-1-1-1-1v-2zm10 7v8h-10v-2h8v-4l-8-1v-1h10zm-10 12v-1h2v2l-1 1-1-1v-1zm14 10v5l-1 3-3 1-3-1-3 2c-2 0-3-1-3-2l-1-3v-5h14zm-2 2h-4v5h3l1-3v-2zm-6 0h-5v3l1 2 2 1 1-1 1-2v-3zm-7 14v-2l2-1 1-1h5a4 4 0 0 1 2 2l1 2-1 2-1 1-1 1h-3v-7l-2 1-1 2v2l1 1v1l-2-1-1-3zm9 0-1-2h-2v5c2 0 3-1 3-3zm1 7v2h-1l1 1v4l-1 1-1 1h-5l-2-1-1-1v-4l2-1h-6v-2h14zm-8 4v2l3 1h1l2-1 1-2-1-2h-5l-1 2zm8 8v1h-4v5h4v2h-10v-2h4v-5h-4v-2l10 1zm-10 14 1-3 2-1 2 1 1 4v2l2-1v-3l-1-1v-1h1l1 1 1 1v2l-1 3-3 1-6-1v-1h1l-1-3zm2 0v2l1 1h2v-2l-1-2-1-1-1 1v1zm8 8v2h-4v5h4v1h-10v-2h4v-4l-4-1v-1h10zm-9 10v1l1 1h8v7h-9v2l-4-1v-1h3v-7h-3v-2h4zm0 8h7v-4h-5l-1-1h-1v5zm-2 8 2-3 3-1h3a4 4 0 0 1 2 2 5 5 0 0 1 0 5l-1 1h-2l1-2h1v-2l-1-2h-5l-1 2v2l2 1v1h-2l-1-1-1-1v-2zm11 7v1h-4v2l3 3v2l-4-4-6 4v-2l5-3v-2h-5v-2l11 1zm-11 13 1-3 4-1h1l3 1 2 3-2 4-3 1h-1l-4-1-1-4zm2 0 1 2 2 1h1l2-1 1-2-1-2h-5l-1 2zm8 8v6h-2l1-5h-9v-2l10 1zm-10 11 1-3 4-1 4 1 1 3-1 4-4 1-4-1-1-4zm2 1v2h6l1-2-1-2-2-1h-1l-2 1-1 2zm5 277v8h-10v-2h8v-4h-8v-2h10zm0 11v2h-2l1 1 1 2a4 4 0 0 1-1 3l-2 1h-5l-1-1a4 4 0 0 1-1-3v-2l1-1h-5v-2h14zm-9 5 1 1 2 1h1l2-1 1-1-1-2-2-1h-3l-1 3zm-2 10 2-3 3-1h1l3 1 2 3-2 4-3 1h-1l-3-1-2-4zm2 0 1 2 2 1h3l1-2-1-2-2-1h-3l-1 2zm-2 11 1-3 4-1h3a4 4 0 0 1 2 3 5 5 0 0 1 0 3l-1 1-1 1h-1v-1l1-1 1-2-1-2h-5l-1 2v2l1 1v2l-1-1-1-1-1-1v-2zm10 7v8h-10v-2h8l1-5h-9v-1h10zm-10 12v-1h2l1 1-1 1-1 1-1-1v-1zm14 10v5l-1 3-3 1-3-1-3 2-3-2-1-3v-5h14zm-2 2h-4v2l1 3h3v-5zm-6 0h-4v5l2 1 2-1v-5zm-6 14v-2l1-1 2-1h4a4 4 0 0 1 3 2v4l-1 1-2 1-2 1h-1v-8l-2 1-1 2 1 2 1 1v2l-3-2v-3zm8 0v-2l-2-1v6c1 0 2-1 2-3zm2 7v1l-2 1 2 1a5 5 0 0 1 0 4l-1 1-2 1h-5l-1-1a4 4 0 0 1-1-3v-2l1-1h-5v-2h14zm-9 4 1 2 2 1h1l2-1 1-1-1-2-2-1h-3l-1 2zm9 7v2h-5v5h4v2h-10v-2h5v-5h-4v-2h10zm-11 15 1-3 2-1 2 1 1 4v2h1l1-1 1-1-1-2-1-1v-1h2l1 1v3l-1 3-2 1h-7v-2h2l-2-3zm2 0v1l1 1 1 1h1v-4l-2-1-1 1v1zm8 8v1h-4v5h4v2h-10v-2h4l1-5h-5v-1h10zm-8 10v1h1l1 1h6v7h-8v1h-5v-1h3v-8h-2v-1h4zm0 7 6 1v-4h-4l-1-1h-1v4zm-2 9 1-3 4-1h2a4 4 0 0 1 3 2 5 5 0 0 1-1 5l-1 1h-1v-1l1-1 1-2-1-2h-6l-1 2 1 2 1 1v1h-1l-1-1-1-1v-2zm10 7v1h-4v2l4 3v2l-5-4-5 4v-2l4-3v-2h-4v-2l10 1zm-10 13 1-3 4-1 4 1 1 3-1 4-4 1h-1l-3-1-1-4zm1 0 1 2 3 1 3-1v-4h-6l-1 2zm9 7v7h-2v-5h-8v-2h10zm-11 12 2-3 3-1h1l3 1 2 3-2 4-3 1h-1l-3-1-2-4zm2 0 1 2 2 1h3l1-2-1-2-2-1h-3l-1 2z"/>
    <g id="metro">
      <defs>
        <path id="SVGID_00000116944847174959538780000006126037397729387649_" d="M115 40h93v114h-93z"/>
      </defs>
      <clipPath id="SVGID_00000072250656236614213280000016901861469782377111_">
        <use xlink:href="#SVGID_00000116944847174959538780000006126037397729387649_" style="overflow:visible"/>
      </clipPath>
      <g style="clip-path:url(#SVGID_00000072250656236614213280000016901861469782377111_)">
        <path class="st14" d="M208 87c0-26-21-47-46-47a47 47 0 0 0-33 81l2 1c2 0 4-2 4-4l-1-3a39 39 0 0 1 28-67 39 39 0 0 1 27 67l-33 33 6 6 33-33c8-9 13-21 13-34z"/>
        <path class="st14" d="m183 96-12-29-9 17-10-17-12 29h-3v5h17v-5h-2l2-7 7 12 8-12 3 7h-3v5h17v-5"/>
      </g>
    </g>
    <path class="st1" d="M417 154h1212v935H417z"/>
    <path class="st5" d="M1121 739V156h507v584h-12v33h12v125h-12v55h12v69l-72 1v66h-63v-19h-239v19h-58v-67h-75v-69h13v-56h-13V773h12v-33l-12-1zM443 156h559v436h-31v30H818l-21-30h-38v30H599l-24-31H444v-19h-13v-77h-13v-33h9a1026 1026 0 0 1 0-179h-8v-34h9l1-77h14v-16z"/>
    <path class="st15" d="M970 218v-62l-1 1h33l-1-2v64l1 1 1-1v-64l-1-1h-33l-1 1v64l1 1 1-1v-1zm1 374h32V460h-2v131l1-1h-32v2h1z"/>
    <path class="st16" d="M1470 156h-38v32h38v-32z"/>
    <path class="st15" d="M1470 186h-38l1 2v-33l-1 2h38l-2-2v33h1l1 1 1-1v-33l-1-1h-39l-1 1v33h1l1 1h38l1-1v-1l-1-1z"/>
    <path class="st16" d="M1196 155h-76v127h76V155z"/>
    <path class="st15" d="M1196 281h-76l2 1V155l-1 1h75l-1-1v128h2V154h-77l-1 1v127l1 1h77v-2h-1z"/>
    <path class="st16" d="M1196 282h-76v59h76v-59z"/>
    <path class="st15" d="M1196 339h-76l2 2v-59l-1 1h75l-1-1v59l1 1 1-1v-60h-77l-1 1v59h1l1 1h75l1-1v-1l-1-1z"/>
    <path class="st16" d="M1196 341h-76v122h76V341z"/>
    <path class="st15" d="M1196 462h-76l2 1V341l-1 1h75l-1-1v123l1 1 1-1V340l-1-1h-75l-1 1-1 1v122l1 1 1 1h75l1-1v-2h-1"/>
    <path class="st16" d="M1196 656h-76v84h76v-84z"/>
    <path class="st15" d="M1196 738h-76l2 1v-83l-1 1h75l-1-1v84l1 1 1-1v-85h-77l-1 1v83l1 1 1 1h75l1-1v-1l-1-1z"/>
    <path class="st17" d="M1434 244h-21v44h21v-44z"/>
    <path class="st15" d="M1434 287h-21l2 1v-44l-2 1h21l-2-1v44l1 1 1 1 1-1v-46h-22l-1 1v44l1 1v1h21l1-1v-2h-1z"/>
    <path class="st18" d="M1524 244h-17v31h16v-31z"/>
    <path class="st15" d="M1524 274h-17l1 1v-31l-1 1h16l-1-1v31l1 1h2v-33h-18l-1 1v32h19v-2h-1"/>
    <path class="st16" d="M1554 523h-30v31h30v-31z"/>
    <path class="st15" d="M1554 553h-30l1 1v-31l-1 1h30l-1-1v32h2l1-1v-31l-1-1h-32v33h32l1-1-1-1h-1z"/>
    <path class="st18" d="M1628 634h-22v27h22v-27z"/>
    <path class="st15" d="M1628 659h-22l1 2v-27l-1 1h22l-1-1v28h1l1-1v-28l-1-1h-22l-1 1-1 1v27l1 1h23l1-1v-1l-1-1z"/>
    <path class="st19" d="M1319 594h-92v12h92v-12z"/>
    <path class="st15" d="M1227 595h92l-2-1v12l1-1h-91l1 1v-12l-1-1-1-1-1 1v14l1 1h92l1-1 1-1v-12l-1-1-1-1h-92l-1 1v1c0 1 0 0 0 0l2 1z"/>
    <path class="st17" d="M1259 582h-32v12h32v-12z"/>
    <path class="st15" d="M1259 580h-32l-1 1-1 1v12h1v1h33l1-1 1-1v-11l-1-1-1-1-1 1v13l1-2h-33l2 1v-11l-2 1h33l1-1v-1c0-1 0 0 0 0l-1-1z"/>
    <path class="st17" d="M1259 554h-32v28h32v-28z"/>
    <path class="st15" d="M1259 580h-32l1 1v-27l-1 1h32l-1-1v28l1 1 1-1 1-1v-27l-1-1h-34l-1 1v27l1 1 1 1h32l1-1 1-1h-1l-1-1z"/>
    <path class="st17" d="M1227 554h32v-31h-22v13h-10v18z"/>
    <path class="st15" d="M1227 555h33l1-1v-31l-1-1h-24l-1 1v13l1-1h-11v20h2c1 0 0 0 0 0l1-1v-18l-1 1h11v-14l-1 1h22l-1-1v31l1-1h-33l-1 1 1 1h1z"/>
    <path class="st19" d="M1259 523v70h57v-70h-42"/>
    <path class="st15" d="M1258 523v71l1 1h57l1-1v-72l-1-1h-42l-1 1v2h43l-1-1v71l1-2h-57l1 2v-72h-2v1z"/>
    <path class="st16" d="M1318 820h-92v12h92v-12z"/>
    <path class="st15" d="M1226 833h92l1-1 1-1v-11l-1-1-1-1h-92l-1 1v13l1 1 1-1 1-1v-11l-2 1h92l-1-1v11l1-1h-92l-1 1v1l1 1z"/>
    <path class="st17" d="M1259 832h-33v11h33v-11z"/>
    <path class="st15" d="M1259 842h-33l1 1v-12l-1 2h33l-1-2v13h2v-13l-1-1h-33l-1 1c-1 1 0 0 0 0v13h35v-2h-1z"/>
    <path class="st17" d="M1259 843h-33v25h33v-25z"/>
    <path class="st15" d="M1259 842h-34v27l1 1h33l1-1v-27h-2l-1 1v25l2-1h-33l1 1v-25l-1 1h34v-2h-1z"/>
    <path class="st17" d="M1226 868h33v30h-23v-13h-10v-17z"/>
    <path class="st15" d="M1226 870h33l-1-1v29l1-1h-23l1 1v-13l-1-1h-10l1 1v-17l-1-1-1 1v18l1 1h10l-1-1v13h25v-31l-1-1h-33l-1 1v1l1 1z"/>
    <path class="st16" d="M1276 898h40v-67h-57v67"/>
    <path class="st15" d="M1276 899h40l1-1v-67h-1v-1h-57l-1 1h-1v67l1 1h2v-68l-1 2h57l-2-2v67l2-1h-41l-1 1 1 1h1"/>
    <path class="st16" d="M1524 594h-92v12h92v-12z"/>
    <path class="st15" d="M1524 592h-92l-1 1-1 1v12l1 1v1h93v-1l1-1v-12l-1-1v-1l-1 1-1 1v12l1-1h-92l2 1v-12l-2 1h92l1-1 1-1h-1v-1z"/>
    <path class="st17" d="M1524 582h-33v12h32v-12z"/>
    <path class="st15" d="M1491 583h32l-1-1v12l1-2h-32l1 2v-13l-1-1-1 1-1 1v12h1l1 1h32l1-1h1v-12l-1-1-1-1h-32l-1 1-1 1h1l1 1z"/>
    <path class="st17" d="M1524 554h-33v28h32v-28z"/>
    <path class="st15" d="M1491 583h32l1-1 1-1v-27l-1-1c-1-1 0 0 0 0h-34l-1 1v28h1l1 1 1-1v-28l-1 1h33l-2-1v28l2-2h-33l-1 1v1l1 1z"/>
    <path class="st17" d="M1524 554h-33v-31h22v13h11v18z"/>
    <path class="st15" d="M1524 553h-33l1 1v-31l-1 1h22l-1-1v13l1 1h11l-2-1v18l1 1h2v-20h-11l1 1v-14h-25v33h35v-2h-1z"/>
    <path class="st16" d="M1474 523h-40v70h57v-70"/>
    <path class="st15" d="M1474 522h-41v73h58l1-1v-72h-2v72l1-2h-57l1 2v-71l-1 1h40l1-1-1-1z"/>
    <path class="st16" d="M1524 820h-92v12h92v-12z"/>
    <path class="st15" d="M1524 830h-92l1 1v-11l-1 1h92l-1-1v12l1 1 1-1v-13l-1-1h-92l-1 1v13l1 1h92l1-1v-1l-1-1z"/>
    <path class="st17" d="M1524 832h-33v11h33v-11z"/>
    <path class="st15" d="M1491 844h34v-13l-1-1h-33l-1 1c-1 1 0 0 0 0v13h2l1-1v-12l-2 2h33l-1-2v12l1-1h-34v2h1z"/>
    <path class="st17" d="M1524 843h-33v25h33v-25z"/>
    <path class="st15" d="M1491 844h33l-1-1v25l1-1h-33l1 1v-26l-1-1-1 1v27l1 1h33l1-1v-27l-1-1h-33l-1 1v2h1z"/>
    <path class="st17" d="M1524 868h-33v30h23v-13h10v-17z"/>
    <path class="st15" d="M1524 867h-33l-1 1v31h25v-13l-1 1h10l1-1v-18l-1-1-1 1-1 1v16l2-1h-10l-1 1h-1v13l2-1h-23l1 1v-30l-1 2h33v-1l1-1-1-1c1 0 0 0 0 0z"/>
    <path class="st16" d="M1491 898v-67h-57v67h38"/>
    <path class="st15" d="M1492 898v-67l-1-1h-57l-1 1v68h40l1-1-1-1h-39l2 1v-67l-2 2h57l-1-2v68h2v-1z"/>
    <path class="st15" d="M1316 899h119l1-1-1-1h-120l-1 1 1 1h1zm240-400h73v-2h-74l-1 1 1 1h1z"/>
    <path class="st15" d="M1627 462v62h2v-63l-1-1-1 1v1zm1 559h-28l1 1v-69l-1 1h28l-1-1v70h2v-71h-30v71h30v-2h-1zm-253 46h-59l-1 1v2h61l1-1-1-1-1-1z"/>
    <path class="st15" d="M1432 1067h-57l-1 1v2h59v-2l-1-1zm-300-170v57h2l1-1v-56l-1-1-1-1-1 1v1zm0-157v34h2l1-1v-34h-1l-1-1-1 1v1zm-13-277v89l1 1 1 1v-1l1-1v-89l-1-1-1 1h-1z"/>
    <path class="st15" d="M1121 491h76v-2h-77l-1 1 1 1h1zm494 407v55h2v-56h-2v1zm0-158v34h2v-35l-1-1-1 1v1zm12-522v33l1 1 1-1v-33l-1-1h-1v1zm-431-61h30l1-1h1l-1-1v-1h-31l-1 1h-1l1 1 1 1zm328 0h32l1-1v-1l-1-1h-32l-1 1h-1l1 1 1 1zM759 592h32l1-1-1-1h-33v2h1z"/>
    <path class="st20" d="M606 523h-31v68l24 30h7"/>
    <path class="st15" d="M606 522h-32l-1 1v65l1 5 11 13 11 15c3 3 5 2 10 2v-1h1l-1-1-1-1h-6s1 1 0 0l-2-2-11-15-10-12v-68l-1 1h32v-2h-1z"/>
    <path class="st21" d="M844 523h-25v98h152v-98H865"/>
    <path class="st15" d="M844 522h-26l-1 1v99l1 1h153l1-1V522H864l-1 1 1 1h107l-1-1v99l1-2H819l1 2v-99l-1 1h26v-2h-1zM615 291h22v-1h1l-1-1-1-1h-21l-1 1-1 1h1l1 1z"/>
    <path class="st17" d="M637 244h-26c-22 0-33 17-33 38h37v7h21v-45z"/>
    <path class="st15" d="M637 242h-9c-9 0-19-1-28 2-17 5-23 22-23 38v1h38l-2-1v8h1l1 1h22v-1h1v-46l-1-1v-1l-1 1h-1v47l1-2h-21l1 2v-8l-1-1c-1-1 0 0 0 0h-37l1 1c0-16 7-33 25-37h32l1-1 1-1-1-1m-58 184v-29h-2v30h2v-1zm0-81v-29h-2v30h2v-1z"/>
    <path class="st16" d="M637 426h-59v36h58v-36z"/>
    <path class="st15" d="M577 426v37h61v-37l-1-1h-60v2h60l-2-1v36l2-1h-59l1 1v-37h-2v1z"/>
    <path class="st16" d="M615 290v-8h-37v35h59v-27h-22z"/>
    <path class="st15" d="M616 290v-8l-1-1c0-1 0 0 0 0h-38v37h60l1-1v-27l-1-1v-1h-22l-1 1-1 1h1l1 1h22l-2-1v27l2-1h-59l1 1v-35l-1 1h37l-2-1v8h1l1 1 1-1zm355 256h32v-2h-33v2h1zm0 8h31l1-1v-2h-33v2l1 1zm0 7h32v-2h-33v2h1zm0 8h31l1-1v-1l-1-1h-31l-1 1v1l1 1zm0 7h32v-2h-33v2h1zm0 8h31l1-1v-1l-1-1h-31l-1 1v2h1zm0-420h32v-2h-33v2h1zm0 8h31l1-1v-1l-1-1h-31l-1 1v1l1 1zm0 8h31l1-1v-2h-33v2l1 1zm0 7h32v-2l-1-1h-31l-1 1v2h1zm0 8h31l1-1v-2h-33v2l1 1zm0 7h32v-2h-33v2h1zm225-38h31l1-1-1-1h-32l-1 1 1 1h1zm0 8h30l1-1h1l-1-1v-1h-31l-1 1h-1l1 1 1 1zm0 8h30l1-1 1-1-1-1h-32l-1 1 1 1 1 1zm0 7h31l1-1-1-1v-1h-31l-1 1-1 1 1 1h1zm0 8h30l1-1 1-1-1-1h-32l-1 1 1 1 1 1zm0 7h31l1-1-1-1h-32l-1 1 1 1h1zm-106-38h31l1-1-1-1h-32l-1 1 1 1h1z"/>
    <path class="st15" d="M1091 209v-55h-2l-1 1v54l1 1h2v-1z"/>
    <path class="st15" d="M1090 172h30l1-1h1l-1-1v-1h-31l-1 1h-1l1 1 1 1zm0-15h30l1-1h1l-1-1v-1h-31l-1 1h-1l1 1 1 1zm0 23h30l1-1 1-1-1-1h-32l-1 1 1 1 1 1zm0 7h31l1-1-1-1v-1h-31l-1 1-1 1 1 1h1zm0 8h30l1-1 1-1-1-1h-32l-1 1 1 1 1 1zm0 7h31l1-1-1-1h-32l-1 1 1 1h1zm435-38h31l1-1-1-1h-32l-1 1 1 1h1zm0 8h30l1-1h1l-1-1-1-1h-30l-1 1h-1l1 1 1 1zm0 8h30l1-1 1-1-1-1h-32l-1 1 1 1 1 1zm0 7h31l1-1-1-1-1-1h-30l-1 1-1 1 1 1h1zm0 8h30l1-1 1-1-1-1h-32l-1 1 1 1 1 1zm0 7h31l1-1-1-1h-32l-1 1 1 1h1zm94 18v25h2v-26l-1-1-1 1v1zm-8 0v24l1 1h2v-26l-1-1-1 1-1 1zm-7 0v25h2v-26l-1-1-1 1v1zm-8 0v25h2l1-1v-24l-1-1-1-1v1l-1 1zm-7 0v25h2v-26l-1-1-1 1v1zm-8 0v25h2l1-1v-24l-1-1-1-1-1 1v1zm-452 270v-28h-1l-1 1v28h2v-1zm8 0v-28h-1l-1 1h-1v27l1 1h1l1-1zm8 0v-27l-1-1h-1l-1 1v28h2l1-1zm7 0v-28h-1l-1 1v28h2v-1zm8 0v-27l-1-1h-1l-1 1v28h2l1-1zm7 0v-28h-1l-1 1v28h2v-1zm-46 63h76v-2h-77l-1 1 1 1h1zm0-29h76v-2h-77l-1 1 1 1h1z"/>
    <path class="st15" d="M1129 552v-28h-2v29h2v-1zm8 0v-28h-2l-1 1v27l1 1h1l1-1zm8 0v-27l-1-1h-2v29h2l1-1zm7 0v-28h-2v29h2v-1zm8 0v-27l-1-1h-2v29h2l1-1zm7 0v-28h-2v29h2v-1zm460 468h-27l-1 1v1l1 1h27l1-1v-2h-1zm0-7h-28v2h29v-2h-1zm0-8h-28v2h29v-2h-1zm0-8h-27l-1 1v2h29v-2l-1-1zm0-7h-28v2h29v-2h-1zm0-8h-27l-1 1v1l1 1h27l1-1v-1l-1-1zm-507 41h30l1-1v-69l-1-1h-31v71h2l1-1v-69l-2 1h29l-1-1v69l1-1h-29l-1 1v1h1z"/>
    <path class="st15" d="M1121 1023h28l1-1v-2h-30v2l1 1zm0-8h29v-2h-30v2h1zm0-8h29v-2h-30v2h1zm0-7h28l1-1v-1l-1-1h-28l-1 1v2h1zm0-8h29v-2h-30v2h1zm0-7h28l1-1v-1c1 0 0 0 0 0l-1-1h-28l-1 1v1l1 1zm463-488v-31l-1-1h-1l-1 1v31l1 1 1-1h1zm7 0v-32h-1l-1 1v31l1 1 1-1zm8 0v-32h-1l-1 1h-1v30l1 1 1 1v-1h1zm7 0v-32h-1l-1 1v31l1 1 1-1zm8 0v-32h-1l-1 1h-1v30l1 1 1 1 1-1zm8 0v-31l-1-1h-1l-1 1v31l1 1 1-1h1zm-46 25v-25h-2v26h1l1-1z"/>
    <path class="st15" d="M1584 522v-24l-1-1h-2v26h1l1-1h1zm7 0v-25h-2v26h1l1-1zm8 0v-25h-2l-1 1v24l1 1h1v-1h1zm-449 391h-17l-1 1v1c0 1 0 0 0 0l1 1h17l1-1 1-1h-1l-1-1zm-17 9h18l1-1-1-1h-19v2h1zm0 7h18l1-1-1-1h-19v2h1zm0 8h17l1-1 1-1h-1l-1-1h-17l-1 1v1c0 1 0 0 0 0l1 1zm37-40v18h2l1-1v-17l-1-1h-1l-1 1zm-7 0v17l1 1h2v-19h-2l-1 1zm-7 0v18h2v-19h-2v1z"/>
    <path class="st15" d="M1149 897v18h2l1-1v-17l-1-1h-1l-1 1zm21 39v18h2l1-1v-17l-1-1-1-1v1l-1 1zm-7 0v17l1 1h2v-19l-1-1-1 1-1 1zm-7 0v18h2v-19l-1-1-1 1v1zm-4 17v-17l-1-1-1-1-1 1v19h2l1-1z"/>
    <path class="st15" d="M1170 931v5l1-2h-21l1 1v-20l-1 1h21l-1-1v6h2l1-1v-6h-1l-1-1h-21v1l-1 1v21l1 1h21l1-1 1-1v-4l-1-1h-1l-1 1zM537 591v-17h-2v18l1 1 1-1v-1zm-8-16v17h2v-18l-1-1-1 1v1zm14 16v-17h-2v18l1 1 1-1v-1zm7 0v-16l-1-1h-2v18l1 1 1-1 1-1zm6 0v-17h-2l-1 1v16l1 1 1 1 1-1v-1zm-45-35h20l1-1-1-1-1-1h-19l-1 1-1 1 1 1h1zm0 6h20l1-1-1-1h-21l-1 1 1 1h1zm0 8h19l1-1 1-1-1-1h-21l-1 1 1 1 1 1z"/>
    <path class="st15" d="M511 576h20l1-1-1-1-1-1h-19l-1 1-1 1 1 1h1zm44-20h20l1-1-1-1-1-1h-19l-1 1-1 1 1 1h1zm0 6h20l1-1-1-1h-21l-1 1 1 1h1zm0 8h19l1-1 1-1-1-1h-21l-1 1 1 1 1 1zm20 4h-21l-1 1 1 1h21l1-1-1-1z"/>
    <path class="st15" d="M550 556h5l-1-1v20l1-1h-24l1 1v-20l-1 1h7v-2l-1-1h-6l-1 1-1 1v20l1 1h26v-22l-1-1h-5l-1 1-1 1 1 1h1m-1-400v17h2l1-1v-16l-1-1-1-1-1 1v1zm9 16v-16l-1-1-1-1v1l-1 1v16l1 1h1l1-1zm-15-16v17h2l1-1v-16l-1-1-1-1-1 1v1zm-6 0v17h2l1-1v-16l-1-1-1-1-1 1v1zm-7 0v16l1 1h2v-18l-1-1-1 1-1 1zm48 35h-23v2h24v-2h-1m0-7h-20l-1 1v2h22v-2l-1-1zm0-7h-22v2l1 1h21l1-1v-1l-1-1"/>
    <path class="st15" d="M578 171h-23v2h24v-2h-1m-46 20h-18v2h19v-2h-1zm0-7h-17l-1 1v2h19v-2l-1-1zm0-7h-18v2l1 1h17l1-1v-1l-1-1zm-17-4h18v-2h-19v2h1z"/>
    <path class="st15" d="M537 191h-5l1 1v-20l-1 1h25l-2-1v20l1-1h-7l-1 1 1 1h8l1-1v-20l-1-1h-26l-1 1v20l1 1h7v-1l-1-1m1061 746h17l1-1 1-1-1-1h-19v2l1 1zm17-9h-18v2h19l1-1-1-1h-1zm0-7h-18v2h19l1-1-1-1h-1zm0-7h-18v2h19l1-1-1-1h-1zm-36 39v-17l-1-1h-2v19h2l1-1zm6 0v-18h-2v19h2v-1zm8 0v-17l-1-1h-1l-1 1v17l1 1h1l1-1z"/>
    <path class="st15" d="M1600 953v-17l-1-1h-2v19h2l1-1zm-21-38v-17l-1-1h-2v19h2l1-1zm6 0v-18h-2v19h2v-1zm8 0v-17l-1-1h-1l-1 1v17l1 1h1l1-1zm4-17v18h2l1-1v-17l-1-1h-2v1z"/>
    <path class="st15" d="M1579 919v-4l-2 1h21l-1-1v20l1-1h-21l1 1v-6h-2v7l1 1h21l1-1v-22l-1-1h-21l-1 1v6h2l1-1zM782 157h44l1-1v-1l-1-1h-44l-1 1h-1l1 1 1 1z"/>
    <path class="st16" d="M817 365h-55v37h55v-37z"/>
    <path class="st15" d="M817 401h-55l1 1v-37l-1 1h55l-1-1v38h2v-39h-57v39h57v-2h-1"/>
    <path class="st20" d="M1591 156h-35v26h35v-26z"/>
    <path class="st15" d="M1591 181h-35l1 1v-27l-1 2h35l-1-2v28h2l1-1v-26l-1-1-1-1h-35l-1 1v28h37l1-1-1-1h-1"/>
    <path class="st20" d="M1591 180h-35v38h35v-38z"/>
    <path class="st15" d="M1591 217h-35l1 1v-38l-1 1h35l-1-1v39l1 1 1-1 1-1v-38l-1-1h-37v40l1 1h35l1-1 1-1-1-1h-1z"/>
    <path class="st20" d="M1628 156h-37v39h37v-39z"/>
    <path class="st15" d="M1628 194h-37l1 1v-39l-1 1h37l-1-2v41h2v-41l-1-1h-37l-1 1v41h39v-2h-1"/>
    <path class="st20" d="M1628 195h-37v23h37v-23z"/>
    <path class="st15" d="M1628 217h-37l1 1v-23l-1 1h37l-1-1v24l1 1 1-1v-25l-1-1h-37l-1 1v25l1 1h37l1-1v-2h-1z"/>
    <path class="st22" d="M1196 773h-76v62h76v-62z"/>
    <path class="st15" d="M1196 834h-76l2 1v-62l-1 1h75l-1-1v63l1 1 1-1v-64l-1-1h-75l-1 1-1 1v62l1 1 1 1h75l1-1v-1l-1-1z"/>
    <path class="st22" d="M1196 866h-76v31h76v-31z"/>
    <path class="st15" d="M1196 896h-76l2 1v-31l-1 1h75l-1-1v32h2v-33l-1-1h-75l-1 1-1 1v31l1 1h77v-2h-1z"/>
    <path class="st22" d="M1196 836h-76v31h76v-31z"/>
    <path class="st15" d="M1196 866h-76l2 1v-32l-1 2h75l-1-2v33h2v-33l-1-1h-75l-1 1h-1v32l1 1h77v-2h-1z"/>
    <path class="st22" d="M1628 773h-72v62h72v-62z"/>
    <path class="st15" d="M1556 837h72l1-1v-64l-1-1h-72l-1 1-1 1v62l1 1 1 1 1-1v-63l-1 1h72l-1-1v62l1-1h-72l-1 1v1l1 1z"/>
    <path class="st22" d="M1628 836h-72v62h72v-62z"/>
    <path class="st15" d="M1628 897h-72l1 1v-63l-1 2h72l-1-2v64h2v-64l-1-1h-72l-1 1v64h74v-2h-1z"/>
    <path class="st20" d="M612 156h-34v62h33v-62z"/>
    <path class="st15" d="M579 218v-62l-1 1h34l-2-2v63l2-1h-34l-1 1v1c0 1 0 0 0 0l1 1h34l1-1v-63l-1-1v-1h-34l-1 1v64l1 1 1-1v-1z"/>
    <path class="st20" d="M644 156h-34v62h34v-62z"/>
    <path class="st15" d="M612 218v-62l-1 1h33l-1-2v63l1-1h-34v1l-1 1h1l1 1h33l1-1v-64l-1-1h-34v1l-1 1v63h1l1 1v-1l1-1z"/>
    <path class="st21" d="M759 156H644v62h115v-62z"/>
    <path class="st15" d="M645 218v-62l-1 1h115l-1-2v63l1-1H644l-1 1-1 1h1l1 1h115l1-1v-64l-1-1H644l-1 1-1 1v63h1l1 1 1-1v-1z"/>
    <path class="st21" d="M815 156h-56v62h117v-62h-61z"/>
    <path class="st15" d="M815 154h-56l-1 1v64l1 1h117l1-1v-64l-1-1h-61l-1 1v2h62l-1-1v63l1-2H759l1 2v-63l-1 1h57l1-1-1-1-1-1z"/>
    <path class="st21" d="M969 156h-93v62h93v-62z"/>
    <path class="st15" d="M877 218v-62l-1 1h93l-1-2v63l1-1h-93l-1 1v1c0 1 0 0 0 0l1 1h93l1-1v-64l-1-1h-93l-1 1v64l1 1 1-1v-1z"/>
    <path class="st21" d="M791 543v48h6l22 31v-79h-28z"/>
    <path class="st15" d="M789 543v48l1 1h6s-1-1 0 0l1 2 9 12 9 13c1 1 2 4 4 4l1-1v-80h-30l-1 1 1 1 1 1h28l-1-2v79l1-2v1l-1-2-3-5-10-13-7-10c-2-2-5-1-8-1l2 1v-48l-1-1h-1v1h-1zm767 324h73v-2h-74l-1 1 1 1h1z"/>
    <path class="st21" d="M918 419h84V243H899v39h-23v137h23"/>
    <path class="st15" d="M918 420h84l1-1V281h-1l1 1v-39h-1l-1-1H900l-1 1v39l1-1h-24v139h24v-1h1l-1-1v-1h-23l1 2V282l-1 1h24v-40l-1 2h103l-2-2v39l1 1h1l-1-1v137l1-2h-84l-1 1v2h1z"/>
    <path class="st21" d="M740 419h22V282h-23v-39H637v176h84"/>
    <path class="st15" d="M740 420h23V281h-24l1 1v-39l-1-1H637l-1 1h-1v176l1 1h85l1-1-1-1h-84l1 1V244l-1 1h102l-1-2v40h24l-1-1v137l1-1h-23l-1 1 1 1h1z"/>
    <path class="st16" d="M515 156h-72v62h71v-62z"/>
    <path class="st15" d="M443 157h71l-1-1v63l1-2h-71l1 2v-64l-1-1-1 1v64l1 1h71l1-1h1v-63l-1-1-1-1h-71l-1 1v2h1z"/>
    <path class="st15" d="M515 157h63l1-1v-1l-1-1h-64v1h-1l1 1 1 1zm799 367h121v-2h-122v2h1zm32 374c3-13 14-23 28-24 14 0 25 11 28 24 1 2 3 1 3 0-4-15-16-26-31-26s-27 11-30 25c-1 2 2 3 2 1M511 592h64l1-1-1-1h-65l-1 1 1 1h1zm849 45h14l1-1 1-1-1-1h-16v2l1 1zm0 7h29l1-1-1-1h-30v2h1zm0 8h28l1-1 1-1h-1v-1h-29l-1 1v1l1 1zm0 16h28l1-1 1-1-1-1h-30v2l1 1zm0 7h29l1-1-1-1v-1h-29l-1 1v2h1zm0 8h28l1-1 1-1h-1v-1h-29l-1 1v1c0 1 0 0 0 0l1 1zm0 7h29l1-1-1-1h-30v2h1zm0 8h28l1-1 1-1h-1v-1h-29l-1 1v1l1 1zm0 7h29l1-1-1-1h-30v2h1z"/>
    <path class="st15" d="M1387 643v61l1-1h-28l1 1v-79l-1-1-1 1v80h30l1-1v-61l-1-1h-2v1z"/>
    <path class="st15" d="m1356 625 35 21c1 1 3-1 1-2l-34-22h-1l-1 1v2zM443 171h-16v78s2-2 0-1l-3-1h-7v36l1 1h9l-1-2c-8 60-8 120-1 179l1-1h-8l-1 1v35l1 1h13l-2-1v77h1l1 1h12l1-1v-1l-1-1h-12l1 1v-77h-1v-1h-13l1 2v-35l-1 2h8l1-1 1-1c-7-59-8-119 0-179v-1h-10l1 1v-34l-1 1c3 1 9 2 11 0h1l-1-1v-39l1-37-2 1h16v-2h-1z"/>
    <path class="st22" d="M1319 606h-92v108h92V606z"/>
    <path class="st15" d="M1319 712h-92l1 2V606l-1 1h92l-2-1v108l1 1h2V605h-94l-1 1v108l1 1h94v-2l-1-1z"/>
    <path class="st22" d="M1315 156h-62v62h62v-62z"/>
    <path class="st15" d="M1315 217h-62l1 1v-63l-1 2h62l-1-2v64l1 1 1-1v-65h-64v65l1 1h62l1-1v-2h-1z"/>
    <path class="st22" d="M1470 186h-38v32h38v-32z"/>
    <path class="st15" d="M1470 217h-38l1 1v-32l-1 1h38l-2-1v32l1 1 1 1 1-1v-34h-40l-1 1v32l1 1 1 1h38l1-1v-2h-1z"/>
    <path class="st22" d="M1524 156h-32v31h32v-31z"/>
    <path class="st15" d="M1524 186h-32l2 1v-32l-1 2h31l-1-2v33h2v-33l-1-1h-31l-1 1h-1v32l1 1h33v-2h-1"/>
    <path class="st22" d="M1524 185h-32v33h32v-33z"/>
    <path class="st15" d="M1524 217h-32l2 1v-33l-1 1h31l-1-1v34l1 1 1-1v-35h-33l-1 1v33l1 1 1 1h31l1-1v-2h-1z"/>
    <path class="st22" d="M1196 552h-76v41h76v-41z"/>
    <path class="st15" d="M1196 592h-76l2 1v-41l-1 2h75l-1-2v42l1 1 1-1v-43h-77l-1 1v41l1 1 1 1h75l1-1v-1l-1-1z"/>
    <path class="st22" d="M1196 594h-76v62h76v-62z"/>
    <path class="st15" d="M1196 655h-76l2 1v-63l-1 2h75l-1-2v64h2v-65h-76l-1 1h-1v63l1 1h77v-2h-1z"/>
    <path class="st22" d="M1628 244h-72v41h72v-41z"/>
    <path class="st15" d="M1628 283h-72l1 2v-41l-1 1h72l-1-1v42h1l1-1v-42h-74v43h73l1-1v-1l-1-1z"/>
    <path class="st22" d="M1253 156h-26v107h26V156z"/>
    <path class="st15" d="M1253 262h-26l1 1V156l-1 1h26l-1-2v109h2l1-1V156l-1-1-1-1h-26l-1 1v109h28l1-1-1-1h-1z"/>
    <path class="st22" d="M1315 218h-62v45h62v-45z"/>
    <path class="st15" d="M1315 262h-62l1 1v-45l-1 2h62l-1-2v46h2v-46l-1-1h-63v47h64v-2h-1z"/>
    <path class="st22" d="M1413 244h-33v44h33v-44z"/>
    <path class="st15" d="M1413 287h-33l1 1v-44l-1 1h33l-1-1v45l1 1 1-1 1-1v-44l-1-1h-35v46l1 1h33l1-1 1-1-1-1h-1z"/>
    <path class="st22" d="M1381 244h-33v44h33v-44z"/>
    <path class="st15" d="M1381 287h-33l1 1v-44l-1 1h33l-1-1v45l1 1 1-1v-46h-35v46l1 1h33l1-1v-2h-1z"/>
    <path class="st22" d="M1348 244h-33v44h33v-44z"/>
    <path class="st15" d="M1348 287h-33l1 1v-44l-1 1h33l-1-1v45l1 1 1-1v-46h-35v46l1 1h33l1-1v-2h-1z"/>
    <path class="st22" d="M1348 155h-33v45h33v-45z"/>
    <path class="st15" d="M1348 198h-33l1 2v-45l-1 1h33l-1-1v45l1 1h1v-47h-35v46l1 1h34v-2l-1-1z"/>
    <path class="st22" d="M1432 155h-84v63h83v-63z"/>
    <path class="st15" d="M1432 217h-84l1 1v-63l-1 1h83l-1-1v63l1 1 1 1 1-1v-65h-86v65l1 1h84l1-1v-2h-1z"/>
    <path class="st22" d="M1434 288h-119v60h119v-60z"/>
    <path class="st15" d="M1434 346h-119l1 2v-60l-1 2h119l-1-2v60l1 1 1-1v-61h-120l-1 1v60l1 1h119l1-1v-1l-1-1z"/>
    <path class="st22" d="M1524 306h-91v42h90v-42z"/>
    <path class="st15" d="M1524 346h-91l1 2v-42l-1 2h90l-1-2v42h1l1 1 1-1v-43h-92l-1 1v42l1 1h91l1-1v-1l-1-1z"/>
    <path class="st22" d="M1463 244h-30v62h29v-62z"/>
    <path class="st15" d="M1463 305h-30l1 1v-62l-1 1h29l-1-1v62l1 1 1 1 1-1v-64h-32v64l1 1h30l1-1v-2h-1"/>
    <path class="st22" d="M1491 244h-29v62h29v-62z"/>
    <path class="st15" d="M1491 305h-29l1 1v-62l-1 1h29l-1-1v63l1 1 1-1 1-1v-62l-1-1h-31l-1 1v62l1 1 1 1h29l1-1 1-1-1-1h-1"/>
    <path class="st22" d="M1524 275h-33v31h33v-31z"/>
    <path class="st15" d="M1524 305h-33l1 1v-31l-1 1h33l-2-1v31l1 1 1 1 1-1v-33h-35v33l1 1h33l1-1v-2h-1"/>
    <path class="st22" d="M1315 262h-88v86h88v-86z"/>
    <path class="st15" d="M1315 346h-88l1 2v-86l-1 1h88l-1-1v86l1 1 1-1v-87h-90l-1 1v86h1l1 1h88l1-1v-1l-1-1z"/>
    <path class="st22" d="M1525 347h-297v118h297V347z"/>
    <path class="st15" d="M1524 464h-297l1 2V348l-1 1h297l-2-1v118h1l1 1 1-1V347l-1-1h-297l-1 1-1 1v118h1l1 1h297l1-1v-1l-1-1z"/>
    <path class="st22" d="M1628 316h-72v32h72v-32z"/>
    <path class="st15" d="M1628 346h-72l1 2v-32l-1 1h72l-1-1v32l1 1 1-1v-33h-74v33l1 1h72l1-1v-1l-1-1z"/>
    <path class="st22" d="M1628 285h-72v31h72v-31z"/>
    <path class="st15" d="M1628 315h-72l1 1v-31l-1 1h72l-1-1v32h2v-33l-1-1h-72l-1 1v33h74v-2h-1z"/>
    <path class="st22" d="M1628 348h-105v85h105v-85z"/>
    <path class="st15" d="M1628 431h-105l2 2v-85l-1 1h104l-1-2v86l1 1 1-1v-86l-1-1h-104l-1 1-1 1v85h1l1 1h104l1-1v-1l-1-1z"/>
    <path class="st22" d="M1628 433h-72v33h72v-33z"/>
    <path class="st15" d="M1628 464h-72l1 2v-33l-1 1h72l-1-1v33l1 1 1-1v-34l-1-1h-72l-1 1v34l1 1h72l1-1v-1l-1-1z"/>
    <path class="st22" d="M1556 433h-33v33h33v-33z"/>
    <path class="st15" d="M1556 464h-33l2 2v-33l-1 1h32l-1-1v33l1 1 1-1v-34l-1-1h-32l-1 1-1 1v33h1l1 1h32l1-1v-1l-1-1z"/>
    <path class="st22" d="M1628 523h-29v68h29v-68z"/>
    <path class="st15" d="M1628 590h-29l1 1v-68l-1 1h29l-1-1v69h2v-70h-30l-1 1v69h31v-2h-1z"/>
    <path class="st22" d="M1599 523h-45v41h45v-41z"/>
    <path class="st15" d="M1599 563h-45l1 1v-41l-1 1h45l-1-1v42l1 1 1-1 1-1v-41l-1-1h-47v43l1 1h45l1-1 1-1-1-1h-1z"/>
    <path class="st22" d="M1554 553h-30v41h30v-41z"/>
    <path class="st15" d="M1554 592h-30l1 1v-40l-1 1h30l-1-1v41l1 1 1-1 1-1v-40l-1-1h-32v42l1 1h30l1-1 1-1h-1l-1-1z"/>
    <path class="st22" d="M1628 660h-53v27h53v-27z"/>
    <path class="st15" d="M1628 685h-53l1 2v-27l-1 1h53l-1-1v28h1l1-1v-28l-1-1h-53l-1 1v29h54l1-1v-1l-1-1z"/>
    <path class="st22" d="M1628 607h-53v27h53v-27z"/>
    <path class="st15" d="M1628 633h-53l1 1v-27l-1 1h53l-1-1v28l1 1 1-1v-29h-55v29l1 1h53l1-1v-2h-1z"/>
    <path class="st22" d="M1606 634h-31v27h30v-27z"/>
    <path class="st15" d="M1606 659h-31l1 2v-27l-1 1h30l-1-1v27l1 1h1l1-1v-28l-1-1h-31l-1 1v29h32l1-1v-1l-1-1z"/>
    <path class="st22" d="M1592 714h-36v26h36v-26z"/>
    <path class="st15" d="M1592 738h-36l1 1v-25l-1 1h36l-1-1v26l1 1 1-1v-27h-38v27l1 1h36l1-1v-1l-1-1z"/>
    <path class="st22" d="M1628 714h-36v26h36v-26z"/>
    <path class="st15" d="M1628 738h-36l1 1v-25l-1 1h36l-1-1v26l1 1 1-1v-27h-38v27l1 1h36l1-1v-1l-1-1z"/>
    <path class="st22" d="M1628 686h-114v28h114v-28z"/>
    <path class="st15" d="M1628 713h-114l1 1v-28l-1 2h114l-1-2v29h2v-30h-115l-1 1v29h116v-2h-1z"/>
    <path class="st22" d="M1259 773h-33v47h33v-47z"/>
    <path class="st15" d="M1259 819h-33l2 1v-47l-1 1h32l-1-1v48h2v-49h-34l-1 1v47l1 1h34v-2h-1z"/>
    <path class="st22" d="M1319 820h-60v-47h16c43 0 44 47 44 47z"/>
    <path class="st15" d="M1319 818h-60l1 1v-46l-1 1h21a37 37 0 0 1 27 15c7 8 10 20 10 30l1 1 1 1 1-1v-1c0-11-4-24-11-32-6-8-15-13-25-15l-25-1-1 1v48l1 1h60l1-1v-2h-1"/>
    <path class="st22" d="M1524 773h-33v47h33v-47z"/>
    <path class="st15" d="M1492 821h33v-49h-34l-1 1v47l1 1h1l1-1v-47l-1 1h32l-1-1v47l1-1h-33l-1 1 1 1h1"/>
    <path class="st22" d="M1432 820h59v-47h-16c-43 0-43 47-43 47z"/>
    <path class="st15" d="M1432 821h59l1-1v-48l-1-1-24 1c-10 2-19 7-25 15-8 9-11 21-12 33h1l1 1 1-1v-1c0-10 4-21 10-30 12-16 31-15 48-15l-1-1v47l1-2h-59l-1 1v2h1"/>
    <path class="st22" d="M1514 606h-82v108h82V606z"/>
    <path class="st15" d="M1432 715h83V605h-84l-1 1v108l1 1h1c1 0 0 0 0 0l1-1V606l-1 1h82l-1-1v108l1-1h-83l-1 1 1 1h1z"/>
    <path class="st22" d="M1555 606h-41v41h41v-41z"/>
    <path class="st15" d="M1514 648h42v-43h-43v43h2v-42l-1 1h41l-1-1v41l1-1h-42v2h1z"/>
    <path class="st22" d="M1555 646h-41v41h41v-41z"/>
    <path class="st15" d="M1514 688h41l1-1v-42l-1-1h-41l-1 1v43h1l1-1v-41l-1 1h41l-1-1v41l1-2h-41l-1 1v2h1z"/>
    <path class="st22" d="M1600 953h-44v69h44v-69z"/>
    <path class="st15" d="M1600 1021h-44l1 1v-69l-1 1h44l-1-1v70h2l1-1v-69l-1-1h-46v71h46l1-1-1-1h-1z"/>
    <path class="st22" d="M1316 1022h-62v47h62v-47z"/>
    <path class="st15" d="M1316 1067h-62l1 1v-46l-1 1h62l-1-1v47l1 1 1-1v-48h-64v48l1 1h62l1-1v-1l-1-1z"/>
    <path class="st22" d="M1493 1022h-61v47h61v-47z"/>
    <path class="st15" d="M1493 1067h-61l1 1v-46l-1 1h61l-1-1v47l1 1 1-1v-48h-63v48l1 1h61l1-1v-1l-1-1z"/>
    <path class="st22" d="M1556 1022h-63v66h63v-66z"/>
    <path class="st15" d="M1556 1087h-63l1 1v-66l-1 1h63l-1-1v67h2v-68h-65v68h65v-2h-1z"/>
    <path class="st22" d="M1196 953h-47v69h47v-69z"/>
    <path class="st15" d="M1149 1023h48v-71h-49v71h2l1-1v-69l-2 1h47l-1-1v69l1-1h-48v2h1z"/>
    <path class="st22" d="M876 282h-59v120h59V282z"/>
    <path class="st15" d="M876 401h-59l1 1V282l-1 1h59l-1-1v121h2V281h-61v122h61v-2h-1"/>
    <path class="st22" d="M1254 1022h-58v66h58v-66z"/>
    <path class="st15" d="M1196 1023h58l-1-1v66l1-1h-58l1 1v-67h-2l-1 1v66l1 1h60v-68h-60l-1 1 1 1h1z"/>
    <path class="st17" d="M1002 419h-64v43h64v-43z"/>
    <path class="st15" d="M1002 418h-65l-1 1v43l1 1h66v-45h-2l-1 1v43l2-1h-64l1 1v-43l-1 1h65v-2h-1z"/>
    <path class="st17" d="M700 419h-64v43h64v-43z"/>
    <path class="st15" d="M700 418h-64l-1 1v43l1 1h65v-45h-2v44l1-1h-64l2 1v-43l-2 1h65v-2h-1z"/>
    <path class="st22" d="M1524 348h-35v24h35v-24z"/>
    <path class="st15" d="M1524 370h-35l1 2v-25l-1 2h35l-1-2v25l1 1 1-1v-25l-1-1h-35l-1 1c0 1 0 0 0 0v25l1 1h35l1-1v-1l-1-1"/>
    <path class="st22" d="M515 254h-71v32c0 14 21 27 36 27h37l-2-59z"/>
    <path class="st15" d="M515 253h-72v29c0 6 0 11 4 16s9 8 14 11c10 5 20 5 31 5h25v-1l1-1-2-58h-2l1 58 2-1h-22c-10 0-19 1-29-3-6-2-12-6-16-11-6-6-5-12-5-20v-23l-1 1h72v-2h-1z"/>
    <path class="st22" d="M443 461c0-15 18-31 37-31h30v161h-66l-1-130z"/>
    <path class="st15" d="M444 461c1-16 18-28 33-30h33l-1-1v161l1-1h-66l1 1-1-130v-1h-2v1l1 130v1h68l1-1V430l-1-1-1-1h-12c-9 0-18-1-27 2-14 3-29 16-29 31 0 2 2 2 2 0z"/>
    <path class="st22" d="M517 313h-37v32h37v-32z"/>
    <path class="st15" d="M517 344h-37l1 1v-32l-1 1h37l-1-2v34h2v-34l-1-1h-37l-1 1-1 1v32l1 1h39v-2h-1z"/>
    <path class="st22" d="M517 402h-37v28h37v-28z"/>
    <path class="st15" d="M517 401h-38v29l1 1h37l1-1v-29h-2l-1 1v28l2-2h-37l1 2v-28l-1 1h38v-2h-1"/>
    <path class="st22" d="M801 244h-39v38h39v-38z"/>
    <path class="st15" d="M801 242h-39l-1 1v40h41l1-1v-39h-1l-1-1-1 1v39l1-1h-39l1 1v-39l-1 2h39l1-1 1-1-1-1h-1"/>
    <path class="st22" d="M817 282h-55v83h55v-83z"/>
    <path class="st15" d="M817 281h-56v85h57v-85h-2v84l1-2h-55l1 2v-83l-1 1h56v-2h-1z"/>
    <path class="st21" d="M630 523h-25v98h154v-98H651"/>
    <path class="st15" d="M630 522h-26v100l1 1c1 1 0 0 0 0h154l1-1h1v-99l-1-1H650v2h109l-1-1v99l1-2H605l2 2v-99l-2 1h26v-2h-1z"/>
    <path class="st5" d="M1396 404a5 5 0 0 1-5 6h-31a5 5 0 0 1-6-6 5 5 0 0 1 6-5h33l2 1 1 2v2z"/>
    <path class="st23" d="M1396 404a5 5 0 0 1-5 6h-31a5 5 0 0 1-6-6 5 5 0 0 1 6-5h33l2 1 1 2v2z"/>
    <path class="st5" d="M1492 657a5 5 0 0 1-6 5h-31a5 5 0 0 1-5-5 5 5 0 0 1 5-6h31l2 1 2 1 1 1 1 3z"/>
    <path class="st23" d="M1492 657a5 5 0 0 1-6 5h-31a5 5 0 0 1-5-5 5 5 0 0 1 5-6h31l2 1 2 1 1 1 1 3z"/>
    <path class="st5" d="m487 283-2 5-3 3-5 1-4-3a8 8 0 0 1-2-9l3-4 4-1 6 2 3 6"/>
    <path class="st23" d="M487 285a8 8 0 1 0-17-3 8 8 0 0 0 17 3z"/>
    <path class="st5" d="m507 329-2 5-4 3h-4l-5-2a8 8 0 0 1 2-13l4-1 6 2 3 6z"/>
    <path class="st23" d="M506 331a8 8 0 1 0-16-3 8 8 0 0 0 16 3z"/>
    <path class="st5" d="m507 416-2 4c-1 2-2 3-4 3l-4 1-5-2a8 8 0 0 1 2-13l4-2c2 0 5 1 6 3 2 1 2 4 3 6z"/>
    <path class="st23" d="M506 417a8 8 0 1 0-16-3 8 8 0 0 0 16 3z"/>
    <path class="st5" d="m487 187-2 4-3 3-5 1-4-3a8 8 0 0 1 1-12l4-2c3 0 5 1 6 3 2 1 3 3 3 6z"/>
    <path class="st23" d="M487 188a8 8 0 1 0-17-3 8 8 0 0 0 17 3z"/>
    <path class="st5" d="m598 571-1 5-4 3-5 1-4-3a8 8 0 0 1 1-13l5-1 6 2 2 6z"/>
    <path class="st23" d="M598 573a8 8 0 0 0-16-3 8 8 0 0 0 16 3z"/>
    <path class="st5" d="m689 571-2 5-3 3-5 1-5-3a8 8 0 0 1 2-13l4-1 6 2 3 6z"/>
    <path class="st23" d="M689 573c0-5-3-9-7-10-5-1-9 2-10 7-1 4 2 9 7 9 4 1 9-2 10-6z"/>
    <path class="st5" d="m903 571-1 5-4 3-5 1-4-3a8 8 0 0 1 1-13l5-1 6 2 2 6z"/>
    <path class="st23" d="M903 573c1-4-2-9-6-10-5-1-9 2-10 6-1 5 2 9 6 10 5 1 9-1 10-6z"/>
    <path class="st5" d="m814 571-2 5-3 3-5 1-4-3a8 8 0 0 1 1-13l4-1 6 2 3 6z"/>
    <path class="st23" d="M814 573c0-5-3-9-7-10-5-1-9 2-10 7-1 4 2 9 7 9 4 1 9-2 10-6z"/>
    <path class="st5" d="m603 187-1 4-4 3-5 1-4-3a8 8 0 0 1 1-12l5-2 6 3 2 6z"/>
    <path class="st23" d="M603 188a8 8 0 0 0-17-3 8 8 0 0 0 17 3z"/>
    <path class="st5" d="m634 187-2 4c0 2-2 3-3 3l-5 1-4-3a8 8 0 0 1 1-12l5-2 6 3 2 6z"/>
    <path class="st23" d="M634 188c1-4-2-9-7-10-4-1-9 2-10 7-1 4 2 9 7 10s9-2 10-7z"/>
    <path class="st5" d="m708 187-1 4c-1 2-2 3-4 3l-5 1-4-3a8 8 0 0 1 1-12l5-2 6 3 2 6z"/>
    <path class="st23" d="M708 188c1-4-2-9-6-10-5-1-9 2-10 7-1 4 2 9 6 10s9-2 10-7z"/>
    <path class="st5" d="m828 187-2 4c-1 2-2 3-4 3l-4 1-5-3a8 8 0 0 1 2-12l4-2c2 0 5 1 6 3 2 1 3 3 3 6z"/>
    <path class="st23" d="M827 188c1-4-2-9-6-10s-9 2-10 7c-1 4 2 9 6 10 5 1 10-2 10-7z"/>
    <path class="st5" d="m931 187-2 4-3 3-5 1-4-3a8 8 0 0 1 1-12l5-2c2 0 4 1 5 3 2 1 3 3 3 6z"/>
    <path class="st23" d="M931 189c1-5-2-9-7-10-4-2-9 1-10 6-1 4 2 9 7 10 4 1 9-2 10-6z"/>
    <path class="st5" d="M1167 225a8 8 0 0 1-6 8l-5 1-4-3-2-4v-5l4-4a9 9 0 0 1 7 0l3 1 2 3 1 3"/>
    <path class="st23" d="M1167 225a8 8 0 0 1-6 8l-5 1-4-3-2-4v-5l4-4a9 9 0 0 1 7 0l3 1 2 3 1 3z"/>
    <path class="st5" d="m797 324-1 4c-1 2-2 3-4 3l-5 1-4-3-2-4v-5l4-3 4-2 6 3c2 1 2 3 2 6z"/>
    <path class="st23" d="m797 324-1 4c-1 2-2 3-4 3l-5 1-4-3-2-4v-5l4-3 4-2 6 3c2 1 2 3 2 6z"/>
    <path class="st5" d="m797 385-1 5-4 3-5 1-4-3a8 8 0 0 1 2-13l4-1 6 2c2 2 2 4 2 6z"/>
    <path class="st23" d="m797 385-1 5-4 3-5 1-4-3a8 8 0 0 1 2-13l4-1 6 2c2 2 2 4 2 6z"/>
    <path class="st5" d="m677 442-2 4-4 4h-4l-5-2a8 8 0 0 1 2-13 9 9 0 0 1 7-1l3 2a8 8 0 0 1 3 6z"/>
    <path class="st23" d="m677 442-2 4-4 4h-4l-5-2a8 8 0 0 1 2-13 9 9 0 0 1 7-1l3 2a8 8 0 0 1 3 6z"/>
    <path class="st5" d="m617 263-1 5-4 3-5 1-4-3a8 8 0 0 1 2-12l4-2 6 2c2 2 2 4 2 6z"/>
    <path class="st23" d="m617 263-1 5-4 3-5 1-4-3a8 8 0 0 1 2-12l4-2 6 2c2 2 2 4 2 6z"/>
    <path class="st5" d="m980 442-2 4-4 4h-4l-5-2a8 8 0 0 1 2-13 9 9 0 0 1 7-1l3 2a8 8 0 0 1 3 6z"/>
    <path class="st23" d="m980 442-2 4-4 4h-4l-5-2a8 8 0 0 1 2-13 9 9 0 0 1 7-1l3 2a8 8 0 0 1 3 6z"/>
    <path class="st5" d="m1167 311-2 5-4 3-4 1c-2-1-4-1-5-3a8 8 0 0 1 2-12l4-2 6 3c2 1 3 3 3 5z"/>
    <path class="st23" d="m1167 311-2 5-4 3-4 1c-2-1-4-1-5-3a8 8 0 0 1 2-12l4-2 6 3c2 1 3 3 3 5z"/>
    <path class="st5" d="m1167 398-2 5-4 3-4 1-5-3a8 8 0 0 1 2-13l4-1 6 2 3 6z"/>
    <path class="st23" d="m1167 398-2 5-4 3-4 1-5-3a8 8 0 0 1 2-13l4-1 6 2 3 6z"/>
    <path class="st5" d="m1167 574-2 5-4 3h-4l-5-2a8 8 0 0 1 2-13l4-1 6 2 3 6z"/>
    <path class="st23" d="m1167 574-2 5-4 3h-4l-5-2a8 8 0 0 1 2-13l4-1 6 2 3 6z"/>
    <path class="st5" d="m1252 569-1 4-4 3-5 1-4-2a8 8 0 0 1 1-13l5-1c2 0 4 0 6 2l2 6z"/>
    <path class="st23" d="m1252 569-1 4-4 3-5 1-4-2a8 8 0 0 1 1-13l5-1c2 0 4 0 6 2l2 6z"/>
    <path class="st5" d="m1515 569-1 4c-1 2-2 3-4 3l-5 1-4-2a8 8 0 0 1 1-13l5-1c2 0 4 0 6 2l2 6z"/>
    <path class="st23" d="m1515 569-1 4c-1 2-2 3-4 3l-5 1-4-2a8 8 0 0 1 1-13l5-1c2 0 4 0 6 2l2 6z"/>
    <path class="st5" d="m1600 852-2 5-3 3h-5l-4-2a8 8 0 0 1 1-13l4-1 6 2 3 6z"/>
    <path class="st23" d="m1600 852-2 5-3 3h-5l-4-2a8 8 0 0 1 1-13l4-1 6 2 3 6z"/>
    <path class="st5" d="m1600 805-2 4-3 3-5 1-4-2a8 8 0 0 1 1-13l4-1c3 0 5 0 6 2 2 1 3 4 3 6z"/>
    <path class="st23" d="m1600 805-2 4-3 3-5 1-4-2a8 8 0 0 1 1-13l4-1c3 0 5 0 6 2 2 1 3 4 3 6z"/>
    <path class="st5" d="m1600 883-2 5-3 3-5 1-4-3a8 8 0 0 1 1-12 9 9 0 0 1 8-1l2 2a8 8 0 0 1 3 5z"/>
    <path class="st23" d="m1600 883-2 5-3 3-5 1-4-3a8 8 0 0 1 1-12 9 9 0 0 1 8-1l2 2a8 8 0 0 1 3 5z"/>
    <path class="st5" d="m1585 988-2 4-3 3-5 1-4-3a8 8 0 0 1 1-12 9 9 0 0 1 8-1l2 2 2 2 1 4z"/>
    <path class="st23" d="m1585 988-2 4-3 3-5 1-4-3a8 8 0 0 1 1-12 9 9 0 0 1 8-1l2 2 2 2 1 4z"/>
    <path class="st5" d="m1282 661-2 4c-1 2-2 3-4 3l-4 1-5-2a8 8 0 0 1 2-13l4-2 6 3c2 1 3 3 3 6z"/>
    <path class="st23" d="m1282 661-2 4c-1 2-2 3-4 3l-4 1-5-2a8 8 0 0 1 2-13l4-2 6 3c2 1 3 3 3 6z"/>
    <path class="st5" d="m1291 796-1 5-4 3-5 1c-2 0-3-1-4-3a8 8 0 0 1 1-12 9 9 0 0 1 8-1l3 2 1 2 1 3z"/>
    <path class="st23" d="m1291 796-1 5-4 3-5 1c-2 0-3-1-4-3a8 8 0 0 1 1-12 9 9 0 0 1 8-1l3 2 1 2 1 3z"/>
    <path class="st5" d="m1252 796-1 5-4 3-5 1-4-3-3-4 1-5 3-3a9 9 0 0 1 8-1l3 2 1 2 1 3z"/>
    <path class="st23" d="m1252 796-1 5-4 3-5 1-4-3-3-4 1-5 3-3a9 9 0 0 1 8-1l3 2 1 2 1 3z"/>
    <path class="st5" d="m1475 796-2 5-4 3-5 1-4-3-2-4v-5c1-1 2-3 4-3a9 9 0 0 1 7-1l3 2 2 2 1 3z"/>
    <path class="st23" d="m1475 796-2 5-4 3-5 1-4-3-2-4v-5c1-1 2-3 4-3a9 9 0 0 1 7-1l3 2 2 2 1 3z"/>
    <path class="st5" d="M1251 856a8 8 0 0 1-5 8l-5 1-4-3a8 8 0 0 1 1-13 9 9 0 0 1 8 0l2 1 2 3 1 3z"/>
    <path class="st23" d="M1251 856a8 8 0 0 1-5 8l-5 1-4-3a8 8 0 0 1 1-13 9 9 0 0 1 8 0l2 1 2 3 1 3z"/>
    <path class="st5" d="m1516 856-2 5-4 3-4 1-5-3a8 8 0 0 1 2-13 9 9 0 0 1 7 0l3 1a8 8 0 0 1 3 6z"/>
    <path class="st23" d="m1516 856-2 5-4 3-4 1-5-3a8 8 0 0 1 2-13 9 9 0 0 1 7 0l3 1a8 8 0 0 1 3 6z"/>
    <path class="st5" d="M1167 626a8 8 0 0 1-6 7l-5 1-4-2a8 8 0 0 1 2-13 9 9 0 0 1 7-1l3 2 2 2 1 4z"/>
    <path class="st23" d="M1167 626a8 8 0 0 1-6 7l-5 1-4-2a8 8 0 0 1 2-13 9 9 0 0 1 7-1l3 2 2 2 1 4z"/>
    <path class="st5" d="m1167 698-2 4c-1 2-2 3-4 3l-4 1-5-2a8 8 0 0 1 2-13l4-1c2 0 4 0 6 2l3 6z"/>
    <path class="st23" d="m1167 698-2 4c-1 2-2 3-4 3l-4 1-5-2a8 8 0 0 1 2-13l4-1c2 0 4 0 6 2l3 6z"/>
    <path class="st5" d="M1167 804a8 8 0 0 1-6 8l-5 1-4-3a8 8 0 0 1 2-12 9 9 0 0 1 7-1l3 2 2 2 1 3z"/>
    <path class="st23" d="M1167 804a8 8 0 0 1-6 8l-5 1-4-3a8 8 0 0 1 2-12 9 9 0 0 1 7-1l3 2 2 2 1 3z"/>
    <path class="st5" d="m1167 851-2 5-4 3h-4l-5-2a8 8 0 0 1 2-13l4-1 6 2 3 6z"/>
    <path class="st23" d="m1167 851-2 5-4 3h-4l-5-2a8 8 0 0 1 2-13l4-1 6 2 3 6z"/>
    <path class="st5" d="M1167 883a8 8 0 0 1-6 8h-5l-4-2a8 8 0 0 1 2-13 9 9 0 0 1 7 0l3 1 2 3 1 3z"/>
    <path class="st23" d="M1167 883a8 8 0 0 1-6 8h-5l-4-2a8 8 0 0 1 2-13 9 9 0 0 1 7 0l3 1 2 3 1 3z"/>
    <path class="st5" d="M1181 988a8 8 0 0 1-5 7l-5 1-5-3a8 8 0 0 1 2-12 9 9 0 0 1 8-1l2 2 2 2 1 4z"/>
    <path class="st23" d="M1181 988a8 8 0 0 1-5 7l-5 1-5-3a8 8 0 0 1 2-12 9 9 0 0 1 8-1l2 2 2 2 1 4z"/>
    <path class="st5" d="m1470 1045-2 5-4 3h-4l-5-2a8 8 0 0 1 2-13 9 9 0 0 1 7-1l3 2a8 8 0 0 1 3 6z"/>
    <path class="st23" d="m1470 1045-2 5-4 3h-4l-5-2a8 8 0 0 1 2-13 9 9 0 0 1 7-1l3 2a8 8 0 0 1 3 6z"/>
    <path class="st5" d="m1294 1045-2 5-4 3h-5l-4-2a8 8 0 0 1-2-9l4-4a9 9 0 0 1 7-1l3 2 2 3 1 3z"/>
    <path class="st23" d="m1294 1045-2 5-4 3h-5l-4-2a8 8 0 0 1-2-9l4-4a9 9 0 0 1 7-1l3 2 2 3 1 3z"/>
    <path class="st5" d="m790 263-1 4-4 3-5 1-4-2a8 8 0 0 1 1-13 9 9 0 0 1 8-1l3 2a8 8 0 0 1 2 6z"/>
    <path class="st23" d="m790 263-1 4-4 3-5 1-4-2a8 8 0 0 1 1-13 9 9 0 0 1 8-1l3 2a8 8 0 0 1 2 6z"/>
    <path class="st5" d="M871 343a5 5 0 0 1-6 5h-33l-2-1-1-2v-4l1-2 2-1h35l2 1 1 2 1 2z"/>
    <path class="st23" d="M871 343a5 5 0 0 1-6 5h-33l-2-1-1-2v-4l1-2 2-1h35l2 1 1 2 1 2z"/>
    <path class="st5" d="M498 513a5 5 0 0 1-6 6h-31a5 5 0 0 1-5-6 5 5 0 0 1 5-5h33l2 1 1 2 1 2z"/>
    <path class="st23" d="M498 513a5 5 0 0 1-6 6h-31a5 5 0 0 1-5-6 5 5 0 0 1 5-5h33l2 1 1 2 1 2z"/>
    <path class="st5" d="M616 303v2l-1 2-2 1h-15l-2-1-1-2-1-2 1-2 1-2 1-1h14l4 1 1 4z"/>
    <path class="st23" d="M616 303v2l-1 2-2 1h-15l-2-1-1-2-1-2 1-2 1-2 1-1h14l4 1 1 4z"/>
    <path class="st5" d="M616 445v2l-1 2-2 1h-14l-3-2-2-3 2-4 3-2h12l4 2 1 4z"/>
    <path class="st23" d="M616 445v2l-1 2-2 1h-14l-3-2-2-3 2-4 3-2h12l4 2 1 4z"/>
    <path class="st5" d="M1301 865a5 5 0 0 1-6 5h-11a5 5 0 0 1-5-5 5 5 0 0 1 5-6h11a5 5 0 0 1 6 6z"/>
    <path class="st23" d="M1301 865a5 5 0 0 1-6 5h-11a5 5 0 0 1-5-5 5 5 0 0 1 5-6h11a5 5 0 0 1 6 6z"/>
    <path class="st5" d="M1477 865a5 5 0 0 1-5 5h-12a5 5 0 0 1-5-5 5 5 0 0 1 5-6h12l2 1 1 1 2 2v2z"/>
    <path class="st23" d="M1477 865a5 5 0 0 1-5 5h-12a5 5 0 0 1-5-5 5 5 0 0 1 5-6h12l2 1 1 1 2 2v2z"/>
    <path class="st5" d="M1301 560a5 5 0 0 1-6 6h-11l-2-1-2-1-1-2v-4l1-2 2-1h13l4 2 2 3z"/>
    <path class="st23" d="M1301 560a5 5 0 0 1-6 6h-11l-2-1-2-1-1-2v-4l1-2 2-1h13l4 2 2 3z"/>
    <path class="st5" d="M1477 560a5 5 0 0 1-5 6h-12l-3-2-2-4 2-4 3-1h12l4 1 1 4z"/>
    <path class="st23" d="M1477 560a5 5 0 0 1-5 6h-12l-3-2-2-4 2-4 3-1h12l4 1 1 4z"/>
    <path class="st24" d="m1359 400 1 1v1h-1v-1h-1v7h1v-1h1v1l-1 1h-1l-1-1v-7l1-1h1zm4 1v8h-1v-8h-1v-1h4v1h-2zm6 6-1 1v1h-2l-1-1v-7l1-1h2l1 1v6zm-1-4v-1l-1-1-1 1v6h2v-5zm3 2v3h-1v1l-1-1h1v-1l1-2v-5h3v9h-1v-8h-2v4zm8 2v1l-1 1h-2v-1l-1-1v-5l1-1v-1h2l1 1v6zm-1-4v-2h-1v1h-1v6h2v-5zm5 1 1 1v3l-1 1h-3v-9h3l1 1v3h-1zm0-1v-1l-1-1h-1v3h1l1-1zm0 3v-1h-2v3h1l1-1v-1zm5 3v-2h-2v2h-1l1-9h1l2 9h-1zm-1-7v2l-1 2h2l-1-2v-2zm3 7v-3l1-1v-1h-1v-1l1-2 1-1h2v9h-1v-4h-1l-1 1v3h-1zm1-6 1 1h1v-3h-1l-1 1v1z"/>
    <path class="st25" d="M947 335a12 12 0 1 0-1-24 12 12 0 0 0 1 24z"/>
    <path class="st24" d="M1454 653h2v2h-1v-1h-2v6h2v-1h1v2h-3l-1-2v-5l1-1h1zm5 1v7h-1v-7h-2v-1h4v1h-1zm5 5v2h-3l-1-2v-4l1-1v-1h3v6zm-1-4v-1h-1l-1 1v5h2v-5zm4 2v2l-1 1v1h-1v-1h1v-7h4v8h-1v-7h-2v3zm8 2-1 2h-3v-8h3l1 1v5zm-1-4v-1h-2v6h2v-5zm5 2v4h-3v-8h2l1 1v3zm0-2-1-1h-1v2h1l1-1zm0 4-1-1v-1h-1v3h1v-1h1zm5 2-1-2h-2v2h-1l2-8h1l2 8h-1zm-2-6v3h1v-2l-1-1zm3 6 1-2v-1l1-1h-1v-3l1-1h2v8h-1v-3h-1v1l-1 2h-1zm1-6 2 2v-3h-1v1h-1zM474 287v-7l-1 1v-1l1-1h1v8h-1zm6-1-1 1h-2v-8h3v1c0 1 0 0 0 0v6zm-1-6h-1v6h1v-6zm4 0h-1v1h-1v-1l1-1h2l1 1v1l-1 2-2 3h3v1h-4l2-5h1v-2h-1zm11 53v-7l-2 1v-1l2-1h1v8h-1zm6-1-1 1h-2v-8h2l1 1v6zm-1-6h-2v6h2v-6zm4 7v-7l-1 1v-1l1-1h1v8h-1zm-9 87v-8l-2 1v-1l2-1h1v9h-1zm6-2v1h-1v1h-2v-2h1v1h1v-3h-1v-1h1v-3h-1v1h-2l1-1 1-1h1l1 1v3h-1l1 1v2zm4-4v5h-1v1h-1v-1h-1v-3l1-1h-1v-3h1v-1h1l1 1v2zm-1-1v-1h-1v3h1v-2zm0 3h-1v3h1v-3zm-29-225v-8l-1 1v-1l1-1h1v8h-1zm6-2v1h-1l-1 1v-1h-1v-7l1-1h2v7zm-1-5v-1h-1v7l1-1v-5zm6 5-1 1v1h-2v-1h-1v-1h1v1h1l1-1v-1l-1-1h-1v-1h1l1-1v-1l-1-1h-1v1h-1v-1l1-1h1l1 1v5l1 1zm101 386v-7l-2 1v-1l1-1h2v8h-1zm6-1-1 1h-2l-1-1v-1h1v1h1v1l1-1v-2l-1-1 1-1v-2h-2v1h-1v-1l1-1h2l1 1v2l-1 1 1 1v2zm2 1h-1l2-7h-1v1h-1v-2h3v1l-2 7zm82 0v-7l-1 1v-1l1-1h1v8h-1zm6-1-1 1h-2l-1-1 1-1h1v2l1-1v-2l-1-1 1-1v-2h-1v1h-1v-2h3v4h-1 1v3zm3-3v-1h1v1l1 1v2h-1v1h-2l-1-1v-3h1l1-4h1l-1 4zm1 1v-1h-2v3h2v-2z"/>
    <path class="st25" d="M699 335a12 12 0 1 0 0-24 12 12 0 0 0 0 24z"/>
    <path class="st24" d="M891 575v-7l-2 1v-1l1-1h2v8h-1zm6-1-1 1h-2l-1-1v-1h1v1h1v1l1-1v-2l-1-1 1-1v-2h-2v1h-1v-1l1-1h2l1 1v2l-1 1 1 1v2zm4 0v1h-3v-2h1v1l1 1v-1s1 0 0 0v-3h-1 1v-3h-1v1h-1v-2h3v4h-1 1v3zm-100 1v-7l-1 1v-1l1-1h1v8h-1zm6-1-1 1h-2v-2h1v1l1 1v-4h-1l1-1v-2h-1v1h-1v-2h3v4h-1 1v3zm4 0v1h-1v-1h-2v-1l2-6-1 6h1v-2h1v2h1v1h-1zM590 191v-8l-1 1v-1l1-1h1v8h-1zm6-2v1h-1v1l-1-1h-1v-7h1v-1h2v7zm-1-5v-1h-1v7h1v-6zm6 5v1h-1v-1h-3v-1l2-6h1l-2 6h2v-2h1v3zm20 2v-8l-1 1v-1l1-1h1v8h-1zm6-2v1h-1l-1 1-1-1v-7l1-1h2v7zm-1-5v-1h-1v7h1v-6zm4 7-1-1v-1h-1l1-1v1l1 1h1v-3l-1-1h-2v-4h4v1h-3v2h2l1 1v3l-1 1-1 1zm66 0v-8l-2 1v-1l1-1h2v8h-1zm6-2v1h-1l-1 1-1-1h-1v-7h1v-1h2l1 1v6zm-1-5v-1h-2v7h1l1-1v-5zm5 1v5h-1v1l-1-1h-1v-3l1-1h-1v-3h1v-1h1l1 1v2zm-1-1v-1h-1v3l1-1v-1zm0 3-1-1v4l1-1v-2zm110 4v-8l-1 1v-1l1-1h1v8h-1zm4 0v-8l-1 1v-1l1-1h1v8h-1zm6-2v1h-1l-1 1v-1h-1v-7h1v-1h2v7zm-1-5v-1h-1v7h1v-6zm94 7v-8l-1 1v-1l1-1h1v8h-1zm5 0v-8l-2 1v-1l2-1h1v8h-1zm4 0v-8l-1 1v-1l1-1h1v8h-1zm227 38v-7l-1 1v-1l1-1h1v8h-1zm4 0v-7l-1 1v-1l1-1h1v8h-1zm5 0v-7l-1 1v-1l1-1h1v8h-1zm-378 98v-7l-2 1v-1l2-1h1v8h-1zm4 0v-7l-1 1v-1l1-1h1v8h-1zm4-4 1-1v1h1v4h-3v-4l2-4h1l-2 4zm1 1v-1l-1 1v3h1c1 0 0 0 0 0v-3z"/>
    <path d="M695 327v-7l-1 1v-1l1-1h1v8h-1zm4-7v1h-1v-2h2v1h1v1l-1 2-1 4h2v1h-3v-1l2-5v-2h-1zm5 8-1-1-1-1 1-1v1l1 1v-1h1v-3h-3v-4h4v1h-3v2h2v5h-1v1zm238-1v-7l-1 1v-1l1-1h1v8h-1zm4-7-1 1h-1v-1h1v-1h2v1h1v1l-1 2-2 4h3v1h-4v-1l2-5h1v-2h-1zm5 4h-1l-1-1v-4h3v4l-2 4h-1l2-3zm-1-2v1h1v-3h-1v2z" style="fill:#050404"/>
    <path class="st24" d="M785 390v-7l-2 1v-1l2-1h1v8h-1zm4-8v1l-1 1h-1v-1l1-1h2l1 1v1l-1 1-2 4h3v1h-4v-1l2-4 1-1v-1h-1v-1zm4 8h-1l2-7h-1v1h-1v-2h3l-2 8zm-125 56v-4h-1l-1 1v3h-1v-3l1-1v-1l-1-1v-2h1v2l1 1h1v-3h1v3h1l1-1v-2h1v2l-1 1v1l1 1v3h-1v-3h-1v-1h-1v4h-1zm-61-184-1 1-1 2-1-2-1-2v6h-1v-8h1l1 3 1 2 1-2 1-3h1v8h-1v-6zm5 5v-3h-2v3h-1v-2l1-1v-2l-1-1v-2h1v2l1 1v1h1v-4h1v4h1v-1h1v-3h1v2l-1 1v1h1v1l1 3h-1l-1-2v-1l-1-1h-1v4h-1zm361 173-1 2-1 2-1-2-1-2v6h-1v-9h1l1 3 1 2 1-2 1-2h1v8h-1v-6zm181-125v-7l-1 1v-1l1-1h1v8h-1zm4 0v-7l-1 1v-1l1-1h1v8h-1zm6-1v1h-3v-7l1-1h2v1l1 1v5zm0-5v-1h-2v6l1 1v-1h1v-5zm-10 93v-7l-1 1v-1l1-1h1v8h-1zm6-1-1 1h-2v-8h2l1 1v6zm-1-6h-2v6h2v-6zm4 4h-1l-1-1v-4h3v4l-2 4h-1l2-3zm-1-2v1h1v-1h1v-2h-1v-1l-1 1v2zm-8 181v-7l-1 1v-1l1-1h1v8h-1zm6-1-1 1h-2v-8h2l1 1v6zm-1-6h-2v6h2v-6zm5 1v6h-2l-1-1v-3h1v-1h-1v-2l1-1h2v2zm0-1h-2v2h2v-2zm0 4v-1h-2v3h2v-2zm79-2v-4h-1v1l-1 3h-1l1-3v-1h1l-1-1v-1l-1-2h1l1 2v1h2v-3h1v3h1v-1l1-2h1l-1 2v1h-1l1 1v1l1 3h-1l-1-3v-1h-1v4h-2zm266-6-1 2-1 2-1-2-1-2v6h-1v-9h1l1 3 1 2 1-2 1-3h1v9h-1v-6zm78 289v-8l-1 2v-1l1-1h1v8h-1zm6-2v2h-2l-1-1v-1h1v1h1v-3h-1v-1h1v-3h-1v2l-1-1v-1h3v3l-1 1h1v2zm3 2v-8l-1 2v-1l1-1h1v8h-1zm-9-47v-8l-1 1v-1l1-1h1v9h-1zm6-2v1l-1 1h-1l-1-1v-1h1v1h1v-3h-1v-1h1v-3c0-1 0 0 0 0h-1v1h-1v-1l1-1h1l1 1v3h-1 1v3zm5 0v1h-1v1h-1l-1-1v-7l1-1 1 1h1v6zm-1-5-1-1h-1v7h1l1-1v-5zm-10 85v-7l-1 1v-1l1-1h1v8h-1zm6-1v1h-3v-2h1v2h1v-3h-1v-1h1v-3h-1v1h-1v-2h3v4h-1 1v3zm3-6-1 1h-1l1-1v-1h2l1 1v1l-1 2-2 3h3v1h-4l3-5v-2h-1zm-24 111v-7l-1 1v-1l1-1h1v8h-1zm6-1v1h-2c0 1 0 1 0 0h-1v-2h1v1l1 1v-3h-1v-1h1v-3h-1v1h-1v-2h3v7zm5 0-1 1h-2l-1-1v-1h1l1 1v1l1-1v-2h-1s0-1 0 0v-1h1v-3h-1l-1 1h-1l1-1v-1h2l1 1v3h-1 1v3zm-317-325v-8l-1 1v-1l1-1h1v9h-1zm7-2-1 1v1h-2v-1l-1-1v-5l1-1v-1h1l1 1h1v6zm-1-5-1-1c1 0 0 0 0 0h-1v6l1 1v-1h1v-5zm5 5v1h-1l-1 1v-1h-1v-1h1v1h1v-3h-1v-1h1v-3h-1v1h-1v-1l1-1h1l1 1v3h-1 1v3zm3-6-1 1h-1v-1h1v-1h2v1h1v1l-1 2-2 4h3v1h-4v-1l2-4 1-1v-1l-1-1zm-2 143v-7l-1 1v-1l1-1h1v8h-1zm5-7h-1v1h-1v-2h3v4l-2 3h2v1h-3l2-5h1v-1l-1-1zm5 7v-7l-2 1v-1l1-1h2v8h-1zm-49 0v-7l-1 1v-1l1-1h1v8h-1zm5-7h-1v1h-1v-2h3v4l-2 3h2v1h-3l2-5h1v-1l-1-1zm6 6v1h-3v-8h3v7zm-1-5v-1h-1l-1 1v5h2v-5zm213 6v-7l-1 1v-1l1-1h1v8h-1zm4-7v1h-1v-2h2l1 1v1l-1 2-1 3h2v1h-4l3-5v-2h-1zm6 2v5h-3v-4h1-1v-3l1-1h2v3zm0-1v-1h-2v2l1 1v-1h1v-1zm0 3h-1v-1l-1 1v2l1 1v-1h1v-2zm30 3v-7l-1 1v-1l1-1h1v8h-1zm4-7v1h-1v-2h3v4l-2 3h2v1h-3l2-5v-2h-1zm5 7h-1l2-7h-2v1h-1v-2h4v1l-2 7zm-269 60v-4l-1 1-1 1v2h-1l1-2v-1l1-1h-1v-1l-1-3h1l1 2v2h1v-4h1v4h2v-2l1-2h1l-1 3v1h-1l1 1v1l1 2h-1l-1-2v-1h-1v3h-2zm267-5-1 1-1 2-1-2-1-1v5h-1v-8h1l1 2 1 3 1-3 1-2h1v8h-1v-6zm-355-225v-8l-1 1v-1l1-1h1v9h-1zm6-2v1h-1v1h-2v-1l-1-1v-5l1-1 1-1 1 1h1v6zm-1-5v-1h-2v6h1v1h1v-6zm3 7h-1l2-8h-1v1h-1v-2h3v1l-2 8zm-8 72v-8l-1 1v-1l1-1h1v9h-1zm6-2v1h-1v1h-2v-1l-1-1v-5l1-1 1-1 1 1h1v6zm-1-5v-1h-1l-1 1v5l1 1h1v-6zm5 1v5l-1 1h-1v-1h-1v-3l1-1h-1v-3h1v-1l1 1h1v2zm-1-1v-1h-1v3h1v-2zm0 4v-1h-1v3h1v-2zm-9 109v-7l-1 1v-1l1-1h1v8h-1zm6-1-1 1h-2l-1-1v-6h1v-1h2l1 1v6zm-1-5v-1h-2v6h2v-5zm4 6h-2v-2h1v1l1 1v-4h-2v-4h3v1h-2v2h2v5h-1zm-9 47v-7l-1 1v-1l1-1h1v8h-1zm6-1-1 1h-2v-1h-1v-6h1v-1h2l1 1v6zm-1-6h-2v6h2v-6zm5 6v1h-1v-1h-2v-1l1-6h1l-1 6h1v-2h1v2h1v1h-1zm-10 33v-7l-1 1v-1l1-1h1v8h-1zm6-1-1 1h-2v-1h-1v-6h1v-1h2l1 1v6zm-1-6h-2v6h2v-6zm5 5v2h-3v-2h1v1h2v-2l-1-1h-1v-1h1l1-1v-1h-1v-1 1h-1v1l-1-1 1-1h2l1 1v2h-1v1h1v1l-1 1zm4 106v-7l-1 1v-1l1-1h1v8h-1zm6-1v1h-3v-8h3v7zm-1-5v-1h-1v6l1 1v-6zm4-1-1 1h-1v-1h1v-1h2v1h1v1l-1 2-2 4h3v1h-4v-1l3-5v-2h-1zm280 65v-7l-1 1v-1l1-1h1v8h-1zm6-2v1l-1 1h-2v-2l1 1h1v-3h-1v-1h1v-2l-1-1v2l-1-1v-1h1v-1l1 1h1v3l-1 1h1v2zm4 1v1h-1v-1h-2v-1l2-6h1l-2 6h1v-3h1v3h1v1h-1zm-186 1v-7l-1 1v-1l1-1h1v8h-1zm6-2v1l-1 1h-2v-1l-1-1v-5l1-1h2l1 1v5zm-1-5-1-1v1h-1v6h2v-6zm4 7v-7l-1 1v-1l1-1h1v8h-1zM777 267v-8l-1 1v-1l1-1h1v9h-1zm5 0v-8l-1 1v-1l1-1h1v9h-1zm6-6v1h-1l1 1v3h-1l-1 1-1-1v-7l1-1h1v1h1v2zm-1-1v-1h-1l-1 1v1l1 1h1v-2zm0 3h-2v2l1 1h1v-3zm46 76h1l1 2h-1v-1h-2v6h2v-1h1v2h-3l-1-2v-5l1-1h1zm5 1v7h-1v-7h-2v-1h4v1h-1zm5 5v2h-3l-1-2v-4l1-1v-1h3v6zm-1-4v-1h-1v7l1-1v-5zm4 2v2l-1 1v1l-1 1v-2h1v-7h4v8h-1v-7h-2v3zm8 2-1 2h-3v-7l1-1h2v1h1v5zm-1-4v-1h-2v6l1 1v-1h1v-5zm5 2v1l1 1-1 2h-3v-8h2l1 1 1 1-1 1v1zm0-2-1-1h-1v2h1l1-1zm0 4-1-1v-1h-1v3h2v-1zm5 2-1-2h-2v2h-1l2-8h1l2 8h-1zm-2-6v4h1v-2l-1-2zm3 6 1-2v-1l1-1h-1v-3l1-1h2v9h-1v-4h-1v1l-1 3-1-1zm1-5 2 1v-3h-1l-1 1v1zM460 510v8h-1v-8h4-3zm6 8-1-2h-2v2h-1l2-8h1l1 8zm-2-7v2l-1 2h2v-2l-1-2zm5-1h1l1 1v3h-1l-1 1h-1v3h-1v-8h2zm-1 4h2v-3h-2v3zm4 6h-1v-3h1v-7h4v9h-1v-1h-3v2zm3-3v-7h-2v6l-1 1h3zm2 1v-8h3-2v3h2v1h-2v3h2v1h-3zm6-8h2v4h-1l-1 1h-1v3h-1v-8h2zm-1 4h2v-3h-2v3zm8 2-1 1-1 1-2-1v-7h4v6zm-1-4v-1h-1v-1l-1 1v6h2v-5zm3 1h2v1h1v2l-1 1v1h-3v-8h3v1h-2v2zm0 4h1l1-1v-2h-2v3zm105-214v3l-1 1v1l-1-1h1v-8h4v9h-1v-8h-2v3zm7-1-2 6h-1v-9h1v6l2-6h1v9h-1v-6zm7 3v1h-1v1h-1v1h-1v-1h-1v-1h-1v-5l1-1h1v-1h1v1h1l1 1v4zm-3-4h-1v5h1v-5zm2 1v-1h-1v5h1v-4zm4-2v8h-1v-8h-2v-1h4v1h-1zm-17 145v3l-1 1v1l-1-1h1v-8h4v9h-1v-8h-2v3zm7-1-2 6h-1v-9h1v6l2-6h1v9h-1v-6zm7 3v1h-1v1h-3v-1h-1v-5l1-1 1-1h1v1h1l1 1v4zm-3-5-1 1v5h1v-6zm2 2v-1h-1v5h1v-4zm4-2v8h-1v-8h-2v-1h4v1h-1zm668 423v2l-1 1v1l-1 1v-2h1v-7h3v8h-1v-7h-1v3zm7-1-3 5v-8 6h1l2-6v8-5zm7 3-1 1-1 1h-2l-1-1v-6h1l1-1h1v1h1v1l1 1v3zm-3-5-1 1v5h1v-6zm2 1h-1v-1 6l1-1v-4zm3-1v7h-1v-7h-1v-1h4v1h-2zm160 3v3l-1 1v1l-1-1 1-1v-7h4v8h-1v-7h-2v3zm7-1-2 5h-1v-8h1v6l2-6h1v8h-1v-5zm7 3v1h-1v1h-3l-1-1v-6h1l1-1h1v1h1l1 1v4zm-3-5-1 1v4l1 1v-6zm2 1-1-1v6h1v-5zm4-1v7h-1v-7h-2v-1h4v1h-1zm-193-301v1l-1 2-1 1v-1l1-1v-7h3v9h-1v-8h-1v4zm7-2-3 6v-9 6h1l2-6v9-6zm7 3-1 1v1h-1v1h-1v-1h-2v-7h2v-1h1v1h1v1l1 1v3zm-3-4h-1v5h1v-5zm2 1v-1h-1v5h1v-4zm3-2v8h-1v-8h-1v-1h4v1h-2zm160 4v3h-1v1l-1-1h1v-8h4v9h-1v-8h-2v4zm7-2-2 6h-1v-9h1v6l2-6h1v9h-1v-6zm7 3v1l-1 1h-1v1h-1v-1h-2v-7h2v-1h1v1h1l1 1v4zm-3-4h-1v5h1v-5zm2 1v-1h-1v5h1v-4z"/>
    <path class="st1" d="M1475 557v8h-1v-8h-2v-1h4v1h-1z"/>
  </g>
</svg>
